<?xml version="1.0" encoding="UTF-8" standalone="no"?>
<!DOCTYPE svg PUBLIC "-//W3C//DTD SVG 1.1//EN"
 "http://www.w3.org/Graphics/SVG/1.1/DTD/svg11.dtd">
<!-- Generated by graphviz version 2.44.1 (20200629.0846)
 -->
<!-- Title: HttpUtils::onFail Pages: 1 -->
<svg width="553pt" height="104pt"
 viewBox="0.00 0.00 553.00 104.00" xmlns="http://www.w3.org/2000/svg" xmlns:xlink="http://www.w3.org/1999/xlink">
<g id="graph0" class="graph" transform="scale(1 1) rotate(0) translate(4 100)">
<title>HttpUtils::onFail</title>
<!-- Node1 -->
<g id="node1" class="node">
<title>Node1</title>
<g id="a_node1"><a xlink:title=" ">
<polygon fill="#bfbfbf" stroke="black" points="457,-38.5 457,-57.5 545,-57.5 545,-38.5 457,-38.5"/>
<text text-anchor="middle" x="501" y="-45.5" font-family="Helvetica,sans-Serif" font-size="10.00">HttpUtils::onFail</text>
</a>
</g>
</g>
<!-- Node2 -->
<g id="node2" class="node">
<title>Node2</title>
<g id="a_node2"><a xlink:href="../../dd/d5b/class_http_listener.html#a8cd7858483c3e74df71b5660466a4bd8" target="_top" xlink:title=" ">
<polygon fill="none" stroke="black" points="292,-76.5 292,-95.5 421,-95.5 421,-76.5 292,-76.5"/>
<text text-anchor="middle" x="356.5" y="-83.5" font-family="Helvetica,sans-Serif" font-size="10.00">HttpListener::HttpListener</text>
</a>
</g>
</g>
<!-- Node1&#45;&gt;Node2 -->
<g id="edge1" class="edge">
<title>Node1&#45;&gt;Node2</title>
<path fill="none" stroke="midnightblue" d="M454.35,-60.17C434.64,-65.43 411.93,-71.49 393.45,-76.41"/>
<polygon fill="midnightblue" stroke="midnightblue" points="455.28,-63.55 464.04,-57.59 453.48,-56.78 455.28,-63.55"/>
</g>
<!-- Node3 -->
<g id="node3" class="node">
<title>Node3</title>
<g id="a_node3"><a xlink:href="../../d8/d27/class_http_session.html#a32afcfc6d7697b1a3f4fc883e847aa4e" target="_top" xlink:title=" ">
<polygon fill="none" stroke="black" points="301.5,-38.5 301.5,-57.5 411.5,-57.5 411.5,-38.5 301.5,-38.5"/>
<text text-anchor="middle" x="356.5" y="-45.5" font-family="Helvetica,sans-Serif" font-size="10.00">HttpSession::onRead</text>
</a>
</g>
</g>
<!-- Node1&#45;&gt;Node3 -->
<g id="edge2" class="edge">
<title>Node1&#45;&gt;Node3</title>
<path fill="none" stroke="midnightblue" d="M446.58,-48C435.14,-48 423.06,-48 411.6,-48"/>
<polygon fill="midnightblue" stroke="midnightblue" points="446.86,-51.5 456.86,-48 446.86,-44.5 446.86,-51.5"/>
</g>
<!-- Node5 -->
<g id="node5" class="node">
<title>Node5</title>
<g id="a_node5"><a xlink:href="../../d8/d27/class_http_session.html#a0710e81b70703e1c3f25467ffb1aa9e3" target="_top" xlink:title=" ">
<polygon fill="none" stroke="black" points="0,-0.5 0,-19.5 110,-19.5 110,-0.5 0,-0.5"/>
<text text-anchor="middle" x="55" y="-7.5" font-family="Helvetica,sans-Serif" font-size="10.00">HttpSession::onWrite</text>
</a>
</g>
</g>
<!-- Node1&#45;&gt;Node5 -->
<g id="edge6" class="edge">
<title>Node1&#45;&gt;Node5</title>
<path fill="none" stroke="midnightblue" d="M456.62,-36.05C445.12,-33.3 432.66,-30.69 421,-29 311.42,-13.11 181.64,-10.05 110.11,-9.72"/>
<polygon fill="midnightblue" stroke="midnightblue" points="455.89,-39.47 466.44,-38.48 457.57,-32.68 455.89,-39.47"/>
</g>
<!-- Node4 -->
<g id="node4" class="node">
<title>Node4</title>
<g id="a_node4"><a xlink:href="../../d8/d27/class_http_session.html#a21626ec3ba377a8266a2165e5024da7d" target="_top" xlink:title=" ">
<polygon fill="none" stroke="black" points="146,-38.5 146,-57.5 256,-57.5 256,-38.5 146,-38.5"/>
<text text-anchor="middle" x="201" y="-45.5" font-family="Helvetica,sans-Serif" font-size="10.00">HttpSession::doRead</text>
</a>
</g>
</g>
<!-- Node3&#45;&gt;Node4 -->
<g id="edge3" class="edge">
<title>Node3&#45;&gt;Node4</title>
<path fill="none" stroke="midnightblue" d="M291.25,-48C279.57,-48 267.5,-48 256.15,-48"/>
<polygon fill="midnightblue" stroke="midnightblue" points="291.38,-51.5 301.38,-48 291.38,-44.5 291.38,-51.5"/>
</g>
<!-- Node4&#45;&gt;Node5 -->
<g id="edge4" class="edge">
<title>Node4&#45;&gt;Node5</title>
<path fill="none" stroke="midnightblue" d="M153.83,-35.82C133.84,-30.54 110.78,-24.46 92.08,-19.52"/>
<polygon fill="midnightblue" stroke="midnightblue" points="153.1,-39.24 163.66,-38.41 154.89,-32.48 153.1,-39.24"/>
</g>
<!-- Node6 -->
<g id="node6" class="node">
<title>Node6</title>
<g id="a_node6"><a xlink:href="../../d8/d27/class_http_session.html#a1b32fb61d4134c2180c70edd886997b3" target="_top" xlink:title=" ">
<polygon fill="none" stroke="black" points="10,-38.5 10,-57.5 100,-57.5 100,-38.5 10,-38.5"/>
<text text-anchor="middle" x="55" y="-45.5" font-family="Helvetica,sans-Serif" font-size="10.00">HttpSession::run</text>
</a>
</g>
</g>
<!-- Node4&#45;&gt;Node6 -->
<g id="edge5" class="edge">
<title>Node4&#45;&gt;Node6</title>
<path fill="none" stroke="midnightblue" d="M135.89,-48C123.76,-48 111.34,-48 100,-48"/>
<polygon fill="midnightblue" stroke="midnightblue" points="135.97,-51.5 145.97,-48 135.97,-44.5 135.97,-51.5"/>
</g>
</g>
</svg>
