<?xml version="1.0" encoding="UTF-8" standalone="no"?>
<!DOCTYPE svg PUBLIC "-//W3C//DTD SVG 1.1//EN"
 "http://www.w3.org/Graphics/SVG/1.1/DTD/svg11.dtd">
<!-- Generated by graphviz version 2.44.1 (20200629.0846)
 -->
<!-- Title: HttpUtils Pages: 1 -->
<svg width="118pt" height="365pt"
 viewBox="0.00 0.00 118.00 365.00" xmlns="http://www.w3.org/2000/svg" xmlns:xlink="http://www.w3.org/1999/xlink">
<g id="graph0" class="graph" transform="scale(1 1) rotate(0) translate(4 361)">
<title>HttpUtils</title>
<!-- Node1 -->
<g id="node1" class="node">
<title>Node1</title>
<g id="a_node1"><a xlink:title=" ">
<polygon fill="#bfbfbf" stroke="black" points="0,-0.5 0,-90.5 90,-90.5 90,-0.5 0,-0.5"/>
<text text-anchor="middle" x="45" y="-78.5" font-family="Helvetica,sans-Serif" font-size="10.00">HttpUtils</text>
<polyline fill="none" stroke="black" points="0,-71.5 90,-71.5 "/>
<text text-anchor="middle" x="45" y="-59.5" font-family="Helvetica,sans-Serif" font-size="10.00"> </text>
<polyline fill="none" stroke="black" points="0,-52.5 90,-52.5 "/>
<text text-anchor="start" x="8" y="-40.5" font-family="Helvetica,sans-Serif" font-size="10.00">+ HttpUtils()</text>
<text text-anchor="start" x="8" y="-29.5" font-family="Helvetica,sans-Serif" font-size="10.00">+ ~HttpUtils()</text>
<text text-anchor="start" x="8" y="-18.5" font-family="Helvetica,sans-Serif" font-size="10.00">+ getMimeType()</text>
<text text-anchor="start" x="8" y="-7.5" font-family="Helvetica,sans-Serif" font-size="10.00">+ onFail()</text>
</a>
</g>
</g>
<!-- Node2 -->
<g id="node2" class="node">
<title>Node2</title>
<g id="a_node2"><a xlink:href="../../de/dd8/class_logger_file.html" target="_top" xlink:title=" ">
<polygon fill="none" stroke="black" points="3.5,-138.5 3.5,-206.5 86.5,-206.5 86.5,-138.5 3.5,-138.5"/>
<text text-anchor="middle" x="45" y="-194.5" font-family="Helvetica,sans-Serif" font-size="10.00">LoggerFile</text>
<polyline fill="none" stroke="black" points="3.5,-187.5 86.5,-187.5 "/>
<text text-anchor="middle" x="45" y="-175.5" font-family="Helvetica,sans-Serif" font-size="10.00"> </text>
<polyline fill="none" stroke="black" points="3.5,-168.5 86.5,-168.5 "/>
<text text-anchor="start" x="11.5" y="-156.5" font-family="Helvetica,sans-Serif" font-size="10.00">+ LoggerFile()</text>
<text text-anchor="start" x="11.5" y="-145.5" font-family="Helvetica,sans-Serif" font-size="10.00">+ ~LoggerFile()</text>
</a>
</g>
</g>
<!-- Node2&#45;&gt;Node1 -->
<g id="edge1" class="edge">
<title>Node2&#45;&gt;Node1</title>
<path fill="none" stroke="#404040" d="M45,-138.33C45,-127.37 45,-114.86 45,-102.67"/>
<polygon fill="none" stroke="#404040" points="45,-102.66 41,-96.66 45,-90.66 49,-96.66 45,-102.66"/>
<text text-anchor="middle" x="77.5" y="-112" font-family="Helvetica,sans-Serif" font-size="10.00"> +s_appLogger</text>
</g>
<!-- Node3 -->
<g id="node3" class="node">
<title>Node3</title>
<g id="a_node3"><a xlink:href="../../d3/d42/class_logger.html" target="_top" xlink:title=" ">
<polygon fill="none" stroke="black" points="11,-244.5 11,-356.5 79,-356.5 79,-244.5 11,-244.5"/>
<text text-anchor="middle" x="45" y="-344.5" font-family="Helvetica,sans-Serif" font-size="10.00">Logger</text>
<polyline fill="none" stroke="black" points="11,-337.5 79,-337.5 "/>
<text text-anchor="middle" x="45" y="-325.5" font-family="Helvetica,sans-Serif" font-size="10.00"> </text>
<polyline fill="none" stroke="black" points="11,-318.5 79,-318.5 "/>
<text text-anchor="start" x="19" y="-306.5" font-family="Helvetica,sans-Serif" font-size="10.00">+ getLevel()</text>
<text text-anchor="start" x="19" y="-295.5" font-family="Helvetica,sans-Serif" font-size="10.00">+ setLevel()</text>
<text text-anchor="start" x="19" y="-284.5" font-family="Helvetica,sans-Serif" font-size="10.00">+ debug()</text>
<text text-anchor="start" x="19" y="-273.5" font-family="Helvetica,sans-Serif" font-size="10.00">+ info()</text>
<text text-anchor="start" x="19" y="-262.5" font-family="Helvetica,sans-Serif" font-size="10.00">+ warn()</text>
<text text-anchor="start" x="19" y="-251.5" font-family="Helvetica,sans-Serif" font-size="10.00">+ error()</text>
</a>
</g>
</g>
<!-- Node3&#45;&gt;Node2 -->
<g id="edge2" class="edge">
<title>Node3&#45;&gt;Node2</title>
<path fill="none" stroke="midnightblue" d="M45,-233.96C45,-224.48 45,-215.08 45,-206.62"/>
<polygon fill="none" stroke="midnightblue" points="41.5,-234.23 45,-244.23 48.5,-234.23 41.5,-234.23"/>
</g>
</g>
</svg>
