<?xml version="1.0" encoding="UTF-8" standalone="no"?>
<!DOCTYPE svg PUBLIC "-//W3C//DTD SVG 1.1//EN"
 "http://www.w3.org/Graphics/SVG/1.1/DTD/svg11.dtd">
<!-- Generated by graphviz version 2.44.1 (20200629.0846)
 -->
<!-- Title: HttpSession::run Pages: 1 -->
<svg width="646pt" height="66pt"
 viewBox="0.00 0.00 646.00 66.00" xmlns="http://www.w3.org/2000/svg" xmlns:xlink="http://www.w3.org/1999/xlink">
<g id="graph0" class="graph" transform="scale(1 1) rotate(0) translate(4 62)">
<title>HttpSession::run</title>
<!-- Node1 -->
<g id="node1" class="node">
<title>Node1</title>
<g id="a_node1"><a xlink:title=" ">
<polygon fill="#bfbfbf" stroke="black" points="0,-19.5 0,-38.5 90,-38.5 90,-19.5 0,-19.5"/>
<text text-anchor="middle" x="45" y="-26.5" font-family="Helvetica,sans-Serif" font-size="10.00">HttpSession::run</text>
</a>
</g>
</g>
<!-- Node2 -->
<g id="node2" class="node">
<title>Node2</title>
<g id="a_node2"><a xlink:href="../../d8/d27/class_http_session.html#a21626ec3ba377a8266a2165e5024da7d" target="_top" xlink:title=" ">
<polygon fill="none" stroke="black" points="126,-19.5 126,-38.5 236,-38.5 236,-19.5 126,-19.5"/>
<text text-anchor="middle" x="181" y="-26.5" font-family="Helvetica,sans-Serif" font-size="10.00">HttpSession::doRead</text>
</a>
</g>
</g>
<!-- Node1&#45;&gt;Node2 -->
<g id="edge1" class="edge">
<title>Node1&#45;&gt;Node2</title>
<path fill="none" stroke="midnightblue" d="M90.25,-29C98.47,-29 107.2,-29 115.88,-29"/>
<polygon fill="midnightblue" stroke="midnightblue" points="115.99,-32.5 125.99,-29 115.99,-25.5 115.99,-32.5"/>
</g>
<!-- Node3 -->
<g id="node3" class="node">
<title>Node3</title>
<g id="a_node3"><a xlink:href="../../d8/d27/class_http_session.html#a32afcfc6d7697b1a3f4fc883e847aa4e" target="_top" xlink:title=" ">
<polygon fill="none" stroke="black" points="272,-19.5 272,-38.5 382,-38.5 382,-19.5 272,-19.5"/>
<text text-anchor="middle" x="327" y="-26.5" font-family="Helvetica,sans-Serif" font-size="10.00">HttpSession::onRead</text>
</a>
</g>
</g>
<!-- Node2&#45;&gt;Node3 -->
<g id="edge2" class="edge">
<title>Node2&#45;&gt;Node3</title>
<path fill="none" stroke="midnightblue" d="M236.03,-29C244.31,-29 252.94,-29 261.42,-29"/>
<polygon fill="midnightblue" stroke="midnightblue" points="261.67,-32.5 271.67,-29 261.67,-25.5 261.67,-32.5"/>
</g>
<!-- Node4 -->
<g id="node4" class="node">
<title>Node4</title>
<g id="a_node4"><a xlink:href="../../d8/d27/class_http_session.html#aedcc072005e5c79ab9da1840d757a53b" target="_top" xlink:title=" ">
<polygon fill="none" stroke="black" points="418,-38.5 418,-57.5 531,-57.5 531,-38.5 418,-38.5"/>
<text text-anchor="middle" x="474.5" y="-45.5" font-family="Helvetica,sans-Serif" font-size="10.00">HttpSession::doClose</text>
</a>
</g>
</g>
<!-- Node3&#45;&gt;Node4 -->
<g id="edge3" class="edge">
<title>Node3&#45;&gt;Node4</title>
<path fill="none" stroke="midnightblue" d="M382.18,-36.07C390.54,-37.17 399.25,-38.3 407.84,-39.43"/>
<polygon fill="midnightblue" stroke="midnightblue" points="407.45,-42.9 417.82,-40.73 408.36,-35.96 407.45,-42.9"/>
</g>
<!-- Node5 -->
<g id="node5" class="node">
<title>Node5</title>
<g id="a_node5"><a xlink:href="../../d2/da0/class_http_utils.html#ad946240e8977e93d78e001ea45a481ac" target="_top" xlink:title=" ">
<polygon fill="none" stroke="black" points="430.5,-0.5 430.5,-19.5 518.5,-19.5 518.5,-0.5 430.5,-0.5"/>
<text text-anchor="middle" x="474.5" y="-7.5" font-family="Helvetica,sans-Serif" font-size="10.00">HttpUtils::onFail</text>
</a>
</g>
</g>
<!-- Node3&#45;&gt;Node5 -->
<g id="edge4" class="edge">
<title>Node3&#45;&gt;Node5</title>
<path fill="none" stroke="midnightblue" d="M382.18,-21.93C394.55,-20.31 407.69,-18.59 420.03,-16.98"/>
<polygon fill="midnightblue" stroke="midnightblue" points="420.72,-20.42 430.18,-15.66 419.81,-13.48 420.72,-20.42"/>
</g>
<!-- Node6 -->
<g id="node6" class="node">
<title>Node6</title>
<g id="a_node6"><a xlink:href="../../d3/d42/class_logger.html#a52d98131462d3254f76fae8f43b2fa90" target="_top" xlink:title=" ">
<polygon fill="none" stroke="black" points="567,-0.5 567,-19.5 638,-19.5 638,-0.5 567,-0.5"/>
<text text-anchor="middle" x="602.5" y="-7.5" font-family="Helvetica,sans-Serif" font-size="10.00">Logger::error</text>
</a>
</g>
</g>
<!-- Node5&#45;&gt;Node6 -->
<g id="edge5" class="edge">
<title>Node5&#45;&gt;Node6</title>
<path fill="none" stroke="midnightblue" d="M518.51,-10C530.76,-10 544.14,-10 556.51,-10"/>
<polygon fill="midnightblue" stroke="midnightblue" points="556.61,-13.5 566.61,-10 556.61,-6.5 556.61,-13.5"/>
</g>
</g>
</svg>
