<?xml version="1.0" encoding="UTF-8" standalone="no"?>
<!DOCTYPE svg PUBLIC "-//W3C//DTD SVG 1.1//EN"
 "http://www.w3.org/Graphics/SVG/1.1/DTD/svg11.dtd">
<!-- Generated by graphviz version 2.44.1 (20200629.0846)
 -->
<!-- Title: HttpSession::doClose Pages: 1 -->
<svg width="559pt" height="66pt"
 viewBox="0.00 0.00 559.00 66.00" xmlns="http://www.w3.org/2000/svg" xmlns:xlink="http://www.w3.org/1999/xlink">
<g id="graph0" class="graph" transform="scale(1 1) rotate(0) translate(4 62)">
<title>HttpSession::doClose</title>
<!-- Node1 -->
<g id="node1" class="node">
<title>Node1</title>
<g id="a_node1"><a xlink:title=" ">
<polygon fill="#bfbfbf" stroke="black" points="438,-19.5 438,-38.5 551,-38.5 551,-19.5 438,-19.5"/>
<text text-anchor="middle" x="494.5" y="-26.5" font-family="Helvetica,sans-Serif" font-size="10.00">HttpSession::doClose</text>
</a>
</g>
</g>
<!-- Node2 -->
<g id="node2" class="node">
<title>Node2</title>
<g id="a_node2"><a xlink:href="../../d8/d27/class_http_session.html#a32afcfc6d7697b1a3f4fc883e847aa4e" target="_top" xlink:title=" ">
<polygon fill="none" stroke="black" points="292,-38.5 292,-57.5 402,-57.5 402,-38.5 292,-38.5"/>
<text text-anchor="middle" x="347" y="-45.5" font-family="Helvetica,sans-Serif" font-size="10.00">HttpSession::onRead</text>
</a>
</g>
</g>
<!-- Node1&#45;&gt;Node2 -->
<g id="edge1" class="edge">
<title>Node1&#45;&gt;Node2</title>
<path fill="none" stroke="midnightblue" d="M427.67,-37.6C419.09,-38.72 410.37,-39.86 402.01,-40.95"/>
<polygon fill="midnightblue" stroke="midnightblue" points="428.2,-41.06 437.66,-36.29 427.29,-34.12 428.2,-41.06"/>
</g>
<!-- Node4 -->
<g id="node4" class="node">
<title>Node4</title>
<g id="a_node4"><a xlink:href="../../d8/d27/class_http_session.html#a0710e81b70703e1c3f25467ffb1aa9e3" target="_top" xlink:title=" ">
<polygon fill="none" stroke="black" points="0,-0.5 0,-19.5 110,-19.5 110,-0.5 0,-0.5"/>
<text text-anchor="middle" x="55" y="-7.5" font-family="Helvetica,sans-Serif" font-size="10.00">HttpSession::onWrite</text>
</a>
</g>
</g>
<!-- Node1&#45;&gt;Node4 -->
<g id="edge5" class="edge">
<title>Node1&#45;&gt;Node4</title>
<path fill="none" stroke="midnightblue" d="M427.4,-26.13C340.76,-22.37 190.41,-15.84 110.15,-12.35"/>
<polygon fill="midnightblue" stroke="midnightblue" points="427.5,-29.64 437.65,-26.57 427.81,-22.64 427.5,-29.64"/>
</g>
<!-- Node3 -->
<g id="node3" class="node">
<title>Node3</title>
<g id="a_node3"><a xlink:href="../../d8/d27/class_http_session.html#a21626ec3ba377a8266a2165e5024da7d" target="_top" xlink:title=" ">
<polygon fill="none" stroke="black" points="146,-38.5 146,-57.5 256,-57.5 256,-38.5 146,-38.5"/>
<text text-anchor="middle" x="201" y="-45.5" font-family="Helvetica,sans-Serif" font-size="10.00">HttpSession::doRead</text>
</a>
</g>
</g>
<!-- Node2&#45;&gt;Node3 -->
<g id="edge2" class="edge">
<title>Node2&#45;&gt;Node3</title>
<path fill="none" stroke="midnightblue" d="M281.73,-48C273.25,-48 264.62,-48 256.33,-48"/>
<polygon fill="midnightblue" stroke="midnightblue" points="281.97,-51.5 291.97,-48 281.97,-44.5 281.97,-51.5"/>
</g>
<!-- Node3&#45;&gt;Node4 -->
<g id="edge3" class="edge">
<title>Node3&#45;&gt;Node4</title>
<path fill="none" stroke="midnightblue" d="M153.83,-35.82C133.84,-30.54 110.78,-24.46 92.08,-19.52"/>
<polygon fill="midnightblue" stroke="midnightblue" points="153.1,-39.24 163.66,-38.41 154.89,-32.48 153.1,-39.24"/>
</g>
<!-- Node5 -->
<g id="node5" class="node">
<title>Node5</title>
<g id="a_node5"><a xlink:href="../../d8/d27/class_http_session.html#a1b32fb61d4134c2180c70edd886997b3" target="_top" xlink:title=" ">
<polygon fill="none" stroke="black" points="10,-38.5 10,-57.5 100,-57.5 100,-38.5 10,-38.5"/>
<text text-anchor="middle" x="55" y="-45.5" font-family="Helvetica,sans-Serif" font-size="10.00">HttpSession::run</text>
</a>
</g>
</g>
<!-- Node3&#45;&gt;Node5 -->
<g id="edge4" class="edge">
<title>Node3&#45;&gt;Node5</title>
<path fill="none" stroke="midnightblue" d="M135.89,-48C123.76,-48 111.34,-48 100,-48"/>
<polygon fill="midnightblue" stroke="midnightblue" points="135.97,-51.5 145.97,-48 135.97,-44.5 135.97,-51.5"/>
</g>
</g>
</svg>
