<?xml version="1.0" encoding="UTF-8" standalone="no"?>
<!DOCTYPE svg PUBLIC "-//W3C//DTD SVG 1.1//EN"
 "http://www.w3.org/Graphics/SVG/1.1/DTD/svg11.dtd">
<!-- Generated by graphviz version 2.44.1 (20200629.0846)
 -->
<!-- Title: HttpSession::onWrite Pages: 1 -->
<svg width="666pt" height="75pt"
 viewBox="0.00 0.00 666.00 75.00" xmlns="http://www.w3.org/2000/svg" xmlns:xlink="http://www.w3.org/1999/xlink">
<g id="graph0" class="graph" transform="scale(1 1) rotate(0) translate(4 71)">
<title>HttpSession::onWrite</title>
<!-- Node1 -->
<g id="node1" class="node">
<title>Node1</title>
<g id="a_node1"><a xlink:title=" ">
<polygon fill="#bfbfbf" stroke="black" points="0,-19.5 0,-38.5 110,-38.5 110,-19.5 0,-19.5"/>
<text text-anchor="middle" x="55" y="-26.5" font-family="Helvetica,sans-Serif" font-size="10.00">HttpSession::onWrite</text>
</a>
</g>
</g>
<!-- Node2 -->
<g id="node2" class="node">
<title>Node2</title>
<g id="a_node2"><a xlink:href="../../d8/d27/class_http_session.html#aedcc072005e5c79ab9da1840d757a53b" target="_top" xlink:title=" ">
<polygon fill="none" stroke="black" points="438,-47.5 438,-66.5 551,-66.5 551,-47.5 438,-47.5"/>
<text text-anchor="middle" x="494.5" y="-54.5" font-family="Helvetica,sans-Serif" font-size="10.00">HttpSession::doClose</text>
</a>
</g>
</g>
<!-- Node1&#45;&gt;Node2 -->
<g id="edge1" class="edge">
<title>Node1&#45;&gt;Node2</title>
<path fill="none" stroke="midnightblue" d="M93.85,-38.59C109.83,-42.22 128.71,-45.97 146,-48 243.69,-59.48 357.84,-59.99 427.9,-58.85"/>
<polygon fill="midnightblue" stroke="midnightblue" points="427.97,-62.34 437.91,-58.67 427.85,-55.35 427.97,-62.34"/>
</g>
<!-- Node3 -->
<g id="node3" class="node">
<title>Node3</title>
<g id="a_node3"><a xlink:href="../../d8/d27/class_http_session.html#a21626ec3ba377a8266a2165e5024da7d" target="_top" xlink:title=" ">
<polygon fill="none" stroke="black" points="146,-19.5 146,-38.5 256,-38.5 256,-19.5 146,-19.5"/>
<text text-anchor="middle" x="201" y="-26.5" font-family="Helvetica,sans-Serif" font-size="10.00">HttpSession::doRead</text>
</a>
</g>
</g>
<!-- Node1&#45;&gt;Node3 -->
<g id="edge2" class="edge">
<title>Node1&#45;&gt;Node3</title>
<path fill="none" stroke="midnightblue" d="M110.03,-29C118.31,-29 126.94,-29 135.42,-29"/>
<polygon fill="midnightblue" stroke="midnightblue" points="135.67,-32.5 145.67,-29 135.67,-25.5 135.67,-32.5"/>
</g>
<!-- Node5 -->
<g id="node5" class="node">
<title>Node5</title>
<g id="a_node5"><a xlink:href="../../d2/da0/class_http_utils.html#ad946240e8977e93d78e001ea45a481ac" target="_top" xlink:title=" ">
<polygon fill="none" stroke="black" points="450.5,-0.5 450.5,-19.5 538.5,-19.5 538.5,-0.5 450.5,-0.5"/>
<text text-anchor="middle" x="494.5" y="-7.5" font-family="Helvetica,sans-Serif" font-size="10.00">HttpUtils::onFail</text>
</a>
</g>
</g>
<!-- Node1&#45;&gt;Node5 -->
<g id="edge7" class="edge">
<title>Node1&#45;&gt;Node5</title>
<path fill="none" stroke="midnightblue" d="M92.51,-19.49C108.76,-15.73 128.21,-11.86 146,-10 249.73,0.83 371.83,-2.97 440.19,-6.57"/>
<polygon fill="midnightblue" stroke="midnightblue" points="440.11,-10.07 450.28,-7.13 440.49,-3.09 440.11,-10.07"/>
</g>
<!-- Node4 -->
<g id="node4" class="node">
<title>Node4</title>
<g id="a_node4"><a xlink:href="../../d8/d27/class_http_session.html#a32afcfc6d7697b1a3f4fc883e847aa4e" target="_top" xlink:title=" ">
<polygon fill="none" stroke="black" points="292,-19.5 292,-38.5 402,-38.5 402,-19.5 292,-19.5"/>
<text text-anchor="middle" x="347" y="-26.5" font-family="Helvetica,sans-Serif" font-size="10.00">HttpSession::onRead</text>
</a>
</g>
</g>
<!-- Node3&#45;&gt;Node4 -->
<g id="edge3" class="edge">
<title>Node3&#45;&gt;Node4</title>
<path fill="none" stroke="midnightblue" d="M256.03,-29C264.31,-29 272.94,-29 281.42,-29"/>
<polygon fill="midnightblue" stroke="midnightblue" points="281.67,-32.5 291.67,-29 281.67,-25.5 281.67,-32.5"/>
</g>
<!-- Node4&#45;&gt;Node2 -->
<g id="edge4" class="edge">
<title>Node4&#45;&gt;Node2</title>
<path fill="none" stroke="midnightblue" d="M397.67,-38.56C409.37,-40.81 421.97,-43.23 434.05,-45.56"/>
<polygon fill="midnightblue" stroke="midnightblue" points="433.58,-49.03 444.06,-47.49 434.9,-42.16 433.58,-49.03"/>
</g>
<!-- Node4&#45;&gt;Node5 -->
<g id="edge5" class="edge">
<title>Node4&#45;&gt;Node5</title>
<path fill="none" stroke="midnightblue" d="M402.18,-21.93C414.55,-20.31 427.69,-18.59 440.03,-16.98"/>
<polygon fill="midnightblue" stroke="midnightblue" points="440.72,-20.42 450.18,-15.66 439.81,-13.48 440.72,-20.42"/>
</g>
<!-- Node6 -->
<g id="node6" class="node">
<title>Node6</title>
<g id="a_node6"><a xlink:href="../../d3/d42/class_logger.html#a52d98131462d3254f76fae8f43b2fa90" target="_top" xlink:title=" ">
<polygon fill="none" stroke="black" points="587,-0.5 587,-19.5 658,-19.5 658,-0.5 587,-0.5"/>
<text text-anchor="middle" x="622.5" y="-7.5" font-family="Helvetica,sans-Serif" font-size="10.00">Logger::error</text>
</a>
</g>
</g>
<!-- Node5&#45;&gt;Node6 -->
<g id="edge6" class="edge">
<title>Node5&#45;&gt;Node6</title>
<path fill="none" stroke="midnightblue" d="M538.51,-10C550.76,-10 564.14,-10 576.51,-10"/>
<polygon fill="midnightblue" stroke="midnightblue" points="576.61,-13.5 586.61,-10 576.61,-6.5 576.61,-13.5"/>
</g>
</g>
</svg>
