<?xml version="1.0" encoding="UTF-8" standalone="no"?>
<!DOCTYPE svg PUBLIC "-//W3C//DTD SVG 1.1//EN"
 "http://www.w3.org/Graphics/SVG/1.1/DTD/svg11.dtd">
<!-- Generated by graphviz version 2.44.1 (20200629.0846)
 -->
<!-- Title: HttpSession::doRead Pages: 1 -->
<svg width="520pt" height="66pt"
 viewBox="0.00 0.00 520.00 66.00" xmlns="http://www.w3.org/2000/svg" xmlns:xlink="http://www.w3.org/1999/xlink">
<g id="graph0" class="graph" transform="scale(1 1) rotate(0) translate(4 62)">
<title>HttpSession::doRead</title>
<!-- Node1 -->
<g id="node1" class="node">
<title>Node1</title>
<g id="a_node1"><a xlink:title=" ">
<polygon fill="#bfbfbf" stroke="black" points="0,-19.5 0,-38.5 110,-38.5 110,-19.5 0,-19.5"/>
<text text-anchor="middle" x="55" y="-26.5" font-family="Helvetica,sans-Serif" font-size="10.00">HttpSession::doRead</text>
</a>
</g>
</g>
<!-- Node2 -->
<g id="node2" class="node">
<title>Node2</title>
<g id="a_node2"><a xlink:href="../../d8/d27/class_http_session.html#a32afcfc6d7697b1a3f4fc883e847aa4e" target="_top" xlink:title=" ">
<polygon fill="none" stroke="black" points="146,-19.5 146,-38.5 256,-38.5 256,-19.5 146,-19.5"/>
<text text-anchor="middle" x="201" y="-26.5" font-family="Helvetica,sans-Serif" font-size="10.00">HttpSession::onRead</text>
</a>
</g>
</g>
<!-- Node1&#45;&gt;Node2 -->
<g id="edge1" class="edge">
<title>Node1&#45;&gt;Node2</title>
<path fill="none" stroke="midnightblue" d="M110.03,-29C118.31,-29 126.94,-29 135.42,-29"/>
<polygon fill="midnightblue" stroke="midnightblue" points="135.67,-32.5 145.67,-29 135.67,-25.5 135.67,-32.5"/>
</g>
<!-- Node3 -->
<g id="node3" class="node">
<title>Node3</title>
<g id="a_node3"><a xlink:href="../../d8/d27/class_http_session.html#aedcc072005e5c79ab9da1840d757a53b" target="_top" xlink:title=" ">
<polygon fill="none" stroke="black" points="292,-38.5 292,-57.5 405,-57.5 405,-38.5 292,-38.5"/>
<text text-anchor="middle" x="348.5" y="-45.5" font-family="Helvetica,sans-Serif" font-size="10.00">HttpSession::doClose</text>
</a>
</g>
</g>
<!-- Node2&#45;&gt;Node3 -->
<g id="edge2" class="edge">
<title>Node2&#45;&gt;Node3</title>
<path fill="none" stroke="midnightblue" d="M256.18,-36.07C264.54,-37.17 273.25,-38.3 281.84,-39.43"/>
<polygon fill="midnightblue" stroke="midnightblue" points="281.45,-42.9 291.82,-40.73 282.36,-35.96 281.45,-42.9"/>
</g>
<!-- Node4 -->
<g id="node4" class="node">
<title>Node4</title>
<g id="a_node4"><a xlink:href="../../d2/da0/class_http_utils.html#ad946240e8977e93d78e001ea45a481ac" target="_top" xlink:title=" ">
<polygon fill="none" stroke="black" points="304.5,-0.5 304.5,-19.5 392.5,-19.5 392.5,-0.5 304.5,-0.5"/>
<text text-anchor="middle" x="348.5" y="-7.5" font-family="Helvetica,sans-Serif" font-size="10.00">HttpUtils::onFail</text>
</a>
</g>
</g>
<!-- Node2&#45;&gt;Node4 -->
<g id="edge3" class="edge">
<title>Node2&#45;&gt;Node4</title>
<path fill="none" stroke="midnightblue" d="M256.18,-21.93C268.55,-20.31 281.69,-18.59 294.03,-16.98"/>
<polygon fill="midnightblue" stroke="midnightblue" points="294.72,-20.42 304.18,-15.66 293.81,-13.48 294.72,-20.42"/>
</g>
<!-- Node5 -->
<g id="node5" class="node">
<title>Node5</title>
<g id="a_node5"><a xlink:href="../../d3/d42/class_logger.html#a52d98131462d3254f76fae8f43b2fa90" target="_top" xlink:title=" ">
<polygon fill="none" stroke="black" points="441,-0.5 441,-19.5 512,-19.5 512,-0.5 441,-0.5"/>
<text text-anchor="middle" x="476.5" y="-7.5" font-family="Helvetica,sans-Serif" font-size="10.00">Logger::error</text>
</a>
</g>
</g>
<!-- Node4&#45;&gt;Node5 -->
<g id="edge4" class="edge">
<title>Node4&#45;&gt;Node5</title>
<path fill="none" stroke="midnightblue" d="M392.51,-10C404.76,-10 418.14,-10 430.51,-10"/>
<polygon fill="midnightblue" stroke="midnightblue" points="430.61,-13.5 440.61,-10 430.61,-6.5 430.61,-13.5"/>
</g>
</g>
</svg>
