<?xml version="1.0" encoding="UTF-8" standalone="no"?>
<!DOCTYPE svg PUBLIC "-//W3C//DTD SVG 1.1//EN"
 "http://www.w3.org/Graphics/SVG/1.1/DTD/svg11.dtd">
<!-- Generated by graphviz version 2.44.1 (20200629.0846)
 -->
<!-- Title: BoostServer/src/HttpSession.cpp Pages: 1 -->
<svg width="1036pt" height="319pt"
 viewBox="0.00 0.00 1036.00 319.00" xmlns="http://www.w3.org/2000/svg" xmlns:xlink="http://www.w3.org/1999/xlink">
<g id="graph0" class="graph" transform="scale(1 1) rotate(0) translate(4 315)">
<title>BoostServer/src/HttpSession.cpp</title>
<!-- Node1 -->
<g id="node1" class="node">
<title>Node1</title>
<g id="a_node1"><a xlink:title=" ">
<polygon fill="#bfbfbf" stroke="black" points="407.5,-291.5 407.5,-310.5 570.5,-310.5 570.5,-291.5 407.5,-291.5"/>
<text text-anchor="middle" x="489" y="-298.5" font-family="Helvetica,sans-Serif" font-size="10.00">BoostServer/src/HttpSession.cpp</text>
</a>
</g>
</g>
<!-- Node2 -->
<g id="node2" class="node">
<title>Node2</title>
<g id="a_node2"><a xlink:href="../../d7/dc1/_http_session_8hpp.html" target="_top" xlink:title=" ">
<polygon fill="none" stroke="black" points="444.5,-235.5 444.5,-254.5 533.5,-254.5 533.5,-235.5 444.5,-235.5"/>
<text text-anchor="middle" x="489" y="-242.5" font-family="Helvetica,sans-Serif" font-size="10.00">HttpSession.hpp</text>
</a>
</g>
</g>
<!-- Node1&#45;&gt;Node2 -->
<g id="edge1" class="edge">
<title>Node1&#45;&gt;Node2</title>
<path fill="none" stroke="midnightblue" d="M489,-291.08C489,-284.01 489,-273.86 489,-264.99"/>
<polygon fill="midnightblue" stroke="midnightblue" points="492.5,-264.75 489,-254.75 485.5,-264.75 492.5,-264.75"/>
</g>
<!-- Node3 -->
<g id="node3" class="node">
<title>Node3</title>
<g id="a_node3"><a xlink:title=" ">
<polygon fill="none" stroke="#bfbfbf" points="0,-174 0,-193 120,-193 120,-174 0,-174"/>
<text text-anchor="middle" x="60" y="-181" font-family="Helvetica,sans-Serif" font-size="10.00">boost/asio/dispatch.hpp</text>
</a>
</g>
</g>
<!-- Node2&#45;&gt;Node3 -->
<g id="edge2" class="edge">
<title>Node2&#45;&gt;Node3</title>
<path fill="none" stroke="midnightblue" d="M444.49,-239.63C376.32,-232.68 242.06,-217.91 129,-199 122.19,-197.86 115.02,-196.52 108,-195.12"/>
<polygon fill="midnightblue" stroke="midnightblue" points="108.35,-191.62 97.85,-193.04 106.95,-198.48 108.35,-191.62"/>
</g>
<!-- Node4 -->
<g id="node4" class="node">
<title>Node4</title>
<g id="a_node4"><a xlink:title=" ">
<polygon fill="none" stroke="#bfbfbf" points="138,-174 138,-193 248,-193 248,-174 138,-174"/>
<text text-anchor="middle" x="193" y="-181" font-family="Helvetica,sans-Serif" font-size="10.00">boost/asio/strand.hpp</text>
</a>
</g>
</g>
<!-- Node2&#45;&gt;Node4 -->
<g id="edge3" class="edge">
<title>Node2&#45;&gt;Node4</title>
<path fill="none" stroke="midnightblue" d="M445.03,-235.44C399.28,-226.49 325.57,-211.98 262,-199 255.86,-197.75 249.42,-196.41 243.04,-195.09"/>
<polygon fill="midnightblue" stroke="midnightblue" points="243.62,-191.63 233.12,-193.01 242.19,-198.48 243.62,-191.63"/>
</g>
<!-- Node5 -->
<g id="node5" class="node">
<title>Node5</title>
<g id="a_node5"><a xlink:title=" ">
<polygon fill="none" stroke="#bfbfbf" points="495,-112.5 495,-131.5 603,-131.5 603,-112.5 495,-112.5"/>
<text text-anchor="middle" x="549" y="-119.5" font-family="Helvetica,sans-Serif" font-size="10.00">boost/beast/core.hpp</text>
</a>
</g>
</g>
<!-- Node2&#45;&gt;Node5 -->
<g id="edge4" class="edge">
<title>Node2&#45;&gt;Node5</title>
<path fill="none" stroke="midnightblue" d="M444.28,-241.67C374.43,-236.41 251.66,-219.7 295,-168 318.78,-139.64 417.71,-129.14 484.86,-125.26"/>
<polygon fill="midnightblue" stroke="midnightblue" points="485.13,-128.75 494.93,-124.72 484.76,-121.76 485.13,-128.75"/>
</g>
<!-- Node6 -->
<g id="node6" class="node">
<title>Node6</title>
<g id="a_node6"><a xlink:title=" ">
<polygon fill="none" stroke="#bfbfbf" points="304,-174 304,-193 410,-193 410,-174 304,-174"/>
<text text-anchor="middle" x="357" y="-181" font-family="Helvetica,sans-Serif" font-size="10.00">boost/beast/http.hpp</text>
</a>
</g>
</g>
<!-- Node2&#45;&gt;Node6 -->
<g id="edge5" class="edge">
<title>Node2&#45;&gt;Node6</title>
<path fill="none" stroke="midnightblue" d="M470.09,-235.48C447.84,-225.45 410.69,-208.7 385.07,-197.15"/>
<polygon fill="midnightblue" stroke="midnightblue" points="386.43,-193.93 375.88,-193.01 383.56,-200.31 386.43,-193.93"/>
</g>
<!-- Node7 -->
<g id="node7" class="node">
<title>Node7</title>
<g id="a_node7"><a xlink:title=" ">
<polygon fill="none" stroke="#bfbfbf" points="428.5,-174 428.5,-193 549.5,-193 549.5,-174 428.5,-174"/>
<text text-anchor="middle" x="489" y="-181" font-family="Helvetica,sans-Serif" font-size="10.00">boost/beast/version.hpp</text>
</a>
</g>
</g>
<!-- Node2&#45;&gt;Node7 -->
<g id="edge6" class="edge">
<title>Node2&#45;&gt;Node7</title>
<path fill="none" stroke="midnightblue" d="M489,-235.48C489,-227.08 489,-213.98 489,-203.16"/>
<polygon fill="midnightblue" stroke="midnightblue" points="492.5,-203.01 489,-193.01 485.5,-203.01 492.5,-203.01"/>
</g>
<!-- Node8 -->
<g id="node8" class="node">
<title>Node8</title>
<g id="a_node8"><a xlink:title=" ">
<polygon fill="none" stroke="#bfbfbf" points="567.5,-174 567.5,-193 656.5,-193 656.5,-174 567.5,-174"/>
<text text-anchor="middle" x="612" y="-181" font-family="Helvetica,sans-Serif" font-size="10.00">boost/config.hpp</text>
</a>
</g>
</g>
<!-- Node2&#45;&gt;Node8 -->
<g id="edge7" class="edge">
<title>Node2&#45;&gt;Node8</title>
<path fill="none" stroke="midnightblue" d="M506.62,-235.48C527.17,-225.53 561.36,-208.99 585.21,-197.46"/>
<polygon fill="midnightblue" stroke="midnightblue" points="586.93,-200.51 594.41,-193.01 583.88,-194.21 586.93,-200.51"/>
</g>
<!-- Node9 -->
<g id="node9" class="node">
<title>Node9</title>
<g id="a_node9"><a xlink:title=" ">
<polygon fill="none" stroke="#bfbfbf" points="674.5,-168.5 674.5,-198.5 775.5,-198.5 775.5,-168.5 674.5,-168.5"/>
<text text-anchor="start" x="682.5" y="-186.5" font-family="Helvetica,sans-Serif" font-size="10.00">boost/property_tree</text>
<text text-anchor="middle" x="725" y="-175.5" font-family="Helvetica,sans-Serif" font-size="10.00">/json_parser.hpp</text>
</a>
</g>
</g>
<!-- Node2&#45;&gt;Node9 -->
<g id="edge8" class="edge">
<title>Node2&#45;&gt;Node9</title>
<path fill="none" stroke="midnightblue" d="M522.81,-235.48C559.66,-226.18 619.37,-211.13 664.37,-199.79"/>
<polygon fill="midnightblue" stroke="midnightblue" points="665.47,-203.12 674.31,-197.28 663.76,-196.33 665.47,-203.12"/>
</g>
<!-- Node10 -->
<g id="node10" class="node">
<title>Node10</title>
<g id="a_node10"><a xlink:title=" ">
<polygon fill="none" stroke="#bfbfbf" points="793.5,-168.5 793.5,-198.5 894.5,-198.5 894.5,-168.5 793.5,-168.5"/>
<text text-anchor="start" x="801.5" y="-186.5" font-family="Helvetica,sans-Serif" font-size="10.00">boost/property_tree</text>
<text text-anchor="middle" x="844" y="-175.5" font-family="Helvetica,sans-Serif" font-size="10.00">/ptree.hpp</text>
</a>
</g>
</g>
<!-- Node2&#45;&gt;Node10 -->
<g id="edge9" class="edge">
<title>Node2&#45;&gt;Node10</title>
<path fill="none" stroke="midnightblue" d="M533.69,-238.4C589.67,-231.11 688.74,-217.33 783.31,-199.03"/>
<polygon fill="midnightblue" stroke="midnightblue" points="784.19,-202.42 793.33,-197.07 782.84,-195.55 784.19,-202.42"/>
</g>
<!-- Node11 -->
<g id="node11" class="node">
<title>Node11</title>
<g id="a_node11"><a xlink:href="../../d4/d90/_http_utils_8hpp.html" target="_top" xlink:title=" ">
<polygon fill="none" stroke="black" points="913,-174 913,-193 987,-193 987,-174 913,-174"/>
<text text-anchor="middle" x="950" y="-181" font-family="Helvetica,sans-Serif" font-size="10.00">HttpUtils.hpp</text>
</a>
</g>
</g>
<!-- Node2&#45;&gt;Node11 -->
<g id="edge10" class="edge">
<title>Node2&#45;&gt;Node11</title>
<path fill="none" stroke="midnightblue" d="M533.55,-241.95C609.87,-237.82 770.24,-226.43 903,-199 907.14,-198.14 911.44,-197.08 915.67,-195.91"/>
<polygon fill="midnightblue" stroke="midnightblue" points="916.74,-199.25 925.35,-193.07 914.77,-192.53 916.74,-199.25"/>
</g>
<!-- Node11&#45;&gt;Node5 -->
<g id="edge16" class="edge">
<title>Node11&#45;&gt;Node5</title>
<path fill="none" stroke="midnightblue" d="M924.84,-173.86C917.84,-171.7 910.18,-169.55 903,-168 803.01,-146.39 684.72,-133.94 613.35,-127.82"/>
<polygon fill="midnightblue" stroke="midnightblue" points="613.42,-124.31 603.17,-126.96 612.84,-131.29 613.42,-124.31"/>
</g>
<!-- Node12 -->
<g id="node12" class="node">
<title>Node12</title>
<g id="a_node12"><a xlink:href="../../d7/d17/_logger_file_8hpp.html" target="_top" xlink:title=" ">
<polygon fill="none" stroke="black" points="893.5,-112.5 893.5,-131.5 1006.5,-131.5 1006.5,-112.5 893.5,-112.5"/>
<text text-anchor="middle" x="950" y="-119.5" font-family="Helvetica,sans-Serif" font-size="10.00">Logger/LoggerFile.hpp</text>
</a>
</g>
</g>
<!-- Node11&#45;&gt;Node12 -->
<g id="edge11" class="edge">
<title>Node11&#45;&gt;Node12</title>
<path fill="none" stroke="midnightblue" d="M950,-173.98C950,-165.58 950,-152.48 950,-141.66"/>
<polygon fill="midnightblue" stroke="midnightblue" points="953.5,-141.51 950,-131.51 946.5,-141.51 953.5,-141.51"/>
</g>
<!-- Node13 -->
<g id="node13" class="node">
<title>Node13</title>
<g id="a_node13"><a xlink:href="../../d3/de3/_logger_8hpp.html" target="_top" xlink:title=" ">
<polygon fill="none" stroke="black" points="858,-56.5 858,-75.5 922,-75.5 922,-56.5 858,-56.5"/>
<text text-anchor="middle" x="890" y="-63.5" font-family="Helvetica,sans-Serif" font-size="10.00">Logger.hpp</text>
</a>
</g>
</g>
<!-- Node12&#45;&gt;Node13 -->
<g id="edge12" class="edge">
<title>Node12&#45;&gt;Node13</title>
<path fill="none" stroke="midnightblue" d="M940.36,-112.32C931.49,-104.34 918.13,-92.31 907.39,-82.65"/>
<polygon fill="midnightblue" stroke="midnightblue" points="909.59,-79.92 899.82,-75.83 904.91,-85.13 909.59,-79.92"/>
</g>
<!-- Node14 -->
<g id="node14" class="node">
<title>Node14</title>
<g id="a_node14"><a xlink:title=" ">
<polygon fill="none" stroke="#bfbfbf" points="899.5,-0.5 899.5,-19.5 940.5,-19.5 940.5,-0.5 899.5,-0.5"/>
<text text-anchor="middle" x="920" y="-7.5" font-family="Helvetica,sans-Serif" font-size="10.00">string</text>
</a>
</g>
</g>
<!-- Node12&#45;&gt;Node14 -->
<g id="edge14" class="edge">
<title>Node12&#45;&gt;Node14</title>
<path fill="none" stroke="midnightblue" d="M947.65,-112.37C942.78,-94.54 931.54,-53.3 924.98,-29.27"/>
<polygon fill="midnightblue" stroke="midnightblue" points="928.35,-28.32 922.34,-19.59 921.6,-30.16 928.35,-28.32"/>
</g>
<!-- Node15 -->
<g id="node15" class="node">
<title>Node15</title>
<g id="a_node15"><a xlink:title=" ">
<polygon fill="none" stroke="#bfbfbf" points="978,-56.5 978,-75.5 1028,-75.5 1028,-56.5 978,-56.5"/>
<text text-anchor="middle" x="1003" y="-63.5" font-family="Helvetica,sans-Serif" font-size="10.00">fstream</text>
</a>
</g>
</g>
<!-- Node12&#45;&gt;Node15 -->
<g id="edge15" class="edge">
<title>Node12&#45;&gt;Node15</title>
<path fill="none" stroke="midnightblue" d="M958.75,-112.08C966.47,-104.22 977.9,-92.57 987.22,-83.08"/>
<polygon fill="midnightblue" stroke="midnightblue" points="989.9,-85.34 994.41,-75.75 984.91,-80.44 989.9,-85.34"/>
</g>
<!-- Node13&#45;&gt;Node14 -->
<g id="edge13" class="edge">
<title>Node13&#45;&gt;Node14</title>
<path fill="none" stroke="midnightblue" d="M894.95,-56.08C899.1,-48.61 905.15,-37.72 910.27,-28.52"/>
<polygon fill="midnightblue" stroke="midnightblue" points="913.34,-30.19 915.14,-19.75 907.22,-26.79 913.34,-30.19"/>
</g>
</g>
</svg>
