<?xml version="1.0" encoding="UTF-8" standalone="no"?>
<!DOCTYPE svg PUBLIC "-//W3C//DTD SVG 1.1//EN"
 "http://www.w3.org/Graphics/SVG/1.1/DTD/svg11.dtd">
<!-- Generated by graphviz version 2.44.1 (20200629.0846)
 -->
<!-- Title: BoostServer/src/Logger/Logger.hpp Pages: 1 -->
<!--zoomable 408 -->
<svg id="main" version="1.1" xmlns="http://www.w3.org/2000/svg" xmlns:xlink="http://www.w3.org/1999/xlink" xml:space="preserve" onload="init(evt)">
<style type="text/css"><![CDATA[
.edge:hover path { stroke: red; }
.edge:hover polygon { stroke: red; fill: red; }
]]></style>
<script type="text/javascript"><![CDATA[
var edges = document.getElementsByTagName('g');
if (edges && edges.length) {
  for (var i=0;i<edges.length;i++) {
    if (edges[i].id.substr(0,4)=='edge') {
      edges[i].setAttribute('class','edge');
    }
  }
}
]]></script>
        <defs>
                <circle id="rim" cx="0" cy="0" r="7"/>
                <circle id="rim2" cx="0" cy="0" r="3.5"/>
                <g id="zoomPlus">
                        <use xlink:href="#rim" fill="#404040">
                                <set attributeName="fill" to="#808080" begin="zoomplus.mouseover" end="zoomplus.mouseout"/>
                        </use>
                        <path d="M-4,0h8M0,-4v8" fill="none" stroke="white" stroke-width="1.5" pointer-events="none"/>
                </g>
                <g id="zoomMin">
                        <use xlink:href="#rim" fill="#404040">
                                <set attributeName="fill" to="#808080" begin="zoomminus.mouseover" end="zoomminus.mouseout"/>
                        </use>
                        <path d="M-4,0h8" fill="none" stroke="white" stroke-width="1.5" pointer-events="none"/>
                </g>
                <g id="dirArrow">
                        <path fill="none" stroke="white" stroke-width="1.5" d="M0,-3.0v7 M-2.5,-0.5L0,-3.0L2.5,-0.5"/>
                </g>
               <g id="resetDef">
                       <use xlink:href="#rim2" fill="#404040">
                               <set attributeName="fill" to="#808080" begin="reset.mouseover" end="reset.mouseout"/>
                       </use>
               </g>
        </defs>

<script type="text/javascript">
var viewWidth = 790;
var viewHeight = 408;
var sectionId = 'dynsection-1';
</script>
<script xlink:href="../../svgpan.js"/>
<svg id="graph" class="graph">
<g id="viewport">
<title>BoostServer/src/Logger/Logger.hpp</title>
<!-- Node1 -->
<g id="node1" class="node">
<title>Node1</title>
<g id="a_node1"><a xlink:title=" ">
<polygon fill="#bfbfbf" stroke="black" points="526,-369.5 526,-399.5 645,-399.5 645,-369.5 526,-369.5"/>
<text text-anchor="start" x="534" y="-387.5" font-family="Helvetica,sans-Serif" font-size="10.00">BoostServer/src/Logger</text>
<text text-anchor="middle" x="585.5" y="-376.5" font-family="Helvetica,sans-Serif" font-size="10.00">/Logger.hpp</text>
</a>
</g>
</g>
<!-- Node2 -->
<g id="node2" class="node">
<title>Node2</title>
<g id="a_node2"><a xlink:href="../../d7/d17/_logger_file_8hpp.html" target="_top" xlink:title=" ">
<polygon fill="none" stroke="black" points="389,-302.5 389,-332.5 508,-332.5 508,-302.5 389,-302.5"/>
<text text-anchor="start" x="397" y="-320.5" font-family="Helvetica,sans-Serif" font-size="10.00">BoostServer/src/Logger</text>
<text text-anchor="middle" x="448.5" y="-309.5" font-family="Helvetica,sans-Serif" font-size="10.00">/LoggerFile.hpp</text>
</a>
</g>
</g>
<!-- Node1&#45;&gt;Node2 -->
<g id="edge1" class="edge">
<title>Node1&#45;&gt;Node2</title>
<path fill="none" stroke="midnightblue" d="M546.49,-364.99C524.78,-354.69 498.17,-342.07 478.17,-332.58"/>
<polygon fill="midnightblue" stroke="midnightblue" points="545.24,-368.27 555.77,-369.4 548.24,-361.95 545.24,-368.27"/>
</g>
<!-- Node14 -->
<g id="node14" class="node">
<title>Node14</title>
<g id="a_node14"><a xlink:href="../../de/d27/_logger_8cpp.html" target="_top" xlink:title=" ">
<polygon fill="none" stroke="black" points="526,-302.5 526,-332.5 645,-332.5 645,-302.5 526,-302.5"/>
<text text-anchor="start" x="534" y="-320.5" font-family="Helvetica,sans-Serif" font-size="10.00">BoostServer/src/Logger</text>
<text text-anchor="middle" x="585.5" y="-309.5" font-family="Helvetica,sans-Serif" font-size="10.00">/Logger.cpp</text>
</a>
</g>
</g>
<!-- Node1&#45;&gt;Node14 -->
<g id="edge14" class="edge">
<title>Node1&#45;&gt;Node14</title>
<path fill="none" stroke="midnightblue" d="M585.5,-359.11C585.5,-350.15 585.5,-340.32 585.5,-332.58"/>
<polygon fill="midnightblue" stroke="midnightblue" points="582,-359.4 585.5,-369.4 589,-359.4 582,-359.4"/>
</g>
<!-- Node15 -->
<g id="node15" class="node">
<title>Node15</title>
<g id="a_node15"><a xlink:href="../../d7/dfb/_logger_console_8hpp.html" target="_top" xlink:title=" ">
<polygon fill="none" stroke="black" points="663,-302.5 663,-332.5 782,-332.5 782,-302.5 663,-302.5"/>
<text text-anchor="start" x="671" y="-320.5" font-family="Helvetica,sans-Serif" font-size="10.00">BoostServer/src/Logger</text>
<text text-anchor="middle" x="722.5" y="-309.5" font-family="Helvetica,sans-Serif" font-size="10.00">/LoggerConsole.hpp</text>
</a>
</g>
</g>
<!-- Node1&#45;&gt;Node15 -->
<g id="edge15" class="edge">
<title>Node1&#45;&gt;Node15</title>
<path fill="none" stroke="midnightblue" d="M624.51,-364.99C646.22,-354.69 672.83,-342.07 692.83,-332.58"/>
<polygon fill="midnightblue" stroke="midnightblue" points="622.76,-361.95 615.23,-369.4 625.76,-368.27 622.76,-361.95"/>
</g>
<!-- Node3 -->
<g id="node3" class="node">
<title>Node3</title>
<g id="a_node3"><a xlink:href="../../d4/d90/_http_utils_8hpp.html" target="_top" xlink:title=" ">
<polygon fill="none" stroke="black" points="291.5,-241 291.5,-260 439.5,-260 439.5,-241 291.5,-241"/>
<text text-anchor="middle" x="365.5" y="-248" font-family="Helvetica,sans-Serif" font-size="10.00">BoostServer/src/HttpUtils.hpp</text>
</a>
</g>
</g>
<!-- Node2&#45;&gt;Node3 -->
<g id="edge2" class="edge">
<title>Node2&#45;&gt;Node3</title>
<path fill="none" stroke="midnightblue" d="M422.33,-296.01C406.92,-283.94 388.24,-269.3 376.6,-260.19"/>
<polygon fill="midnightblue" stroke="midnightblue" points="420.46,-298.99 430.49,-302.4 424.78,-293.47 420.46,-298.99"/>
</g>
<!-- Node13 -->
<g id="node13" class="node">
<title>Node13</title>
<g id="a_node13"><a xlink:href="../../d1/dc6/_logger_file_8cpp.html" target="_top" xlink:title=" ">
<polygon fill="none" stroke="black" points="458,-235.5 458,-265.5 577,-265.5 577,-235.5 458,-235.5"/>
<text text-anchor="start" x="466" y="-253.5" font-family="Helvetica,sans-Serif" font-size="10.00">BoostServer/src/Logger</text>
<text text-anchor="middle" x="517.5" y="-242.5" font-family="Helvetica,sans-Serif" font-size="10.00">/LoggerFile.cpp</text>
</a>
</g>
</g>
<!-- Node2&#45;&gt;Node13 -->
<g id="edge13" class="edge">
<title>Node2&#45;&gt;Node13</title>
<path fill="none" stroke="midnightblue" d="M470.99,-295.31C481.34,-285.56 493.34,-274.26 502.56,-265.58"/>
<polygon fill="midnightblue" stroke="midnightblue" points="468.35,-292.99 463.47,-302.4 473.15,-298.09 468.35,-292.99"/>
</g>
<!-- Node4 -->
<g id="node4" class="node">
<title>Node4</title>
<g id="a_node4"><a xlink:href="../../dd/d4c/_http_listener_8hpp.html" target="_top" xlink:title=" ">
<polygon fill="none" stroke="black" points="88,-112.5 88,-131.5 249,-131.5 249,-112.5 88,-112.5"/>
<text text-anchor="middle" x="168.5" y="-119.5" font-family="Helvetica,sans-Serif" font-size="10.00">BoostServer/src/HttpListener.hpp</text>
</a>
</g>
</g>
<!-- Node3&#45;&gt;Node4 -->
<g id="edge3" class="edge">
<title>Node3&#45;&gt;Node4</title>
<path fill="none" stroke="midnightblue" d="M281.12,-243.58C247.89,-237.08 211.91,-224.19 187.5,-199 169.42,-180.34 167.74,-147.22 168.06,-131.6"/>
<polygon fill="midnightblue" stroke="midnightblue" points="280.87,-247.09 291.33,-245.4 282.09,-240.2 280.87,-247.09"/>
</g>
<!-- Node9 -->
<g id="node9" class="node">
<title>Node9</title>
<g id="a_node9"><a xlink:href="../../d7/dc1/_http_session_8hpp.html" target="_top" xlink:title=" ">
<polygon fill="none" stroke="black" points="197,-174 197,-193 360,-193 360,-174 197,-174"/>
<text text-anchor="middle" x="278.5" y="-181" font-family="Helvetica,sans-Serif" font-size="10.00">BoostServer/src/HttpSession.hpp</text>
</a>
</g>
</g>
<!-- Node3&#45;&gt;Node9 -->
<g id="edge8" class="edge">
<title>Node3&#45;&gt;Node9</title>
<path fill="none" stroke="midnightblue" d="M345.51,-234.57C328.34,-221.74 304.18,-203.69 290.05,-193.13"/>
<polygon fill="midnightblue" stroke="midnightblue" points="343.66,-237.55 353.77,-240.73 347.85,-231.94 343.66,-237.55"/>
</g>
<!-- Node11 -->
<g id="node11" class="node">
<title>Node11</title>
<g id="a_node11"><a xlink:href="../../d5/d6a/_http_utils_8cpp.html" target="_top" xlink:title=" ">
<polygon fill="none" stroke="black" points="378.5,-174 378.5,-193 526.5,-193 526.5,-174 378.5,-174"/>
<text text-anchor="middle" x="452.5" y="-181" font-family="Helvetica,sans-Serif" font-size="10.00">BoostServer/src/HttpUtils.cpp</text>
</a>
</g>
</g>
<!-- Node3&#45;&gt;Node11 -->
<g id="edge11" class="edge">
<title>Node3&#45;&gt;Node11</title>
<path fill="none" stroke="midnightblue" d="M385.49,-234.57C402.66,-221.74 426.82,-203.69 440.95,-193.13"/>
<polygon fill="midnightblue" stroke="midnightblue" points="383.15,-231.94 377.23,-240.73 387.34,-237.55 383.15,-231.94"/>
</g>
<!-- Node12 -->
<g id="node12" class="node">
<title>Node12</title>
<g id="a_node12"><a xlink:href="../../da/d42/test_http_utils_8cpp.html" target="_top" xlink:title=" ">
<polygon fill="none" stroke="black" points="544.5,-168.5 544.5,-198.5 678.5,-198.5 678.5,-168.5 544.5,-168.5"/>
<text text-anchor="start" x="552.5" y="-186.5" font-family="Helvetica,sans-Serif" font-size="10.00">BoostServer/tests/testHttp</text>
<text text-anchor="middle" x="611.5" y="-175.5" font-family="Helvetica,sans-Serif" font-size="10.00">Utils.cpp</text>
</a>
</g>
</g>
<!-- Node3&#45;&gt;Node12 -->
<g id="edge12" class="edge">
<title>Node3&#45;&gt;Node12</title>
<path fill="none" stroke="midnightblue" d="M407.74,-238.34C449.4,-227.33 513.2,-210.47 558.29,-198.56"/>
<polygon fill="midnightblue" stroke="midnightblue" points="406.69,-235 397.91,-240.94 408.48,-241.76 406.69,-235"/>
</g>
<!-- Node5 -->
<g id="node5" class="node">
<title>Node5</title>
<g id="a_node5"><a xlink:href="../../df/df5/_http_listener_8cpp.html" target="_top" xlink:title=" ">
<polygon fill="none" stroke="black" points="0,-56.5 0,-75.5 161,-75.5 161,-56.5 0,-56.5"/>
<text text-anchor="middle" x="80.5" y="-63.5" font-family="Helvetica,sans-Serif" font-size="10.00">BoostServer/src/HttpListener.cpp</text>
</a>
</g>
</g>
<!-- Node4&#45;&gt;Node5 -->
<g id="edge4" class="edge">
<title>Node4&#45;&gt;Node5</title>
<path fill="none" stroke="midnightblue" d="M145.52,-106.9C129.39,-97 108.32,-84.07 94.6,-75.65"/>
<polygon fill="midnightblue" stroke="midnightblue" points="144.01,-110.08 154.36,-112.32 147.67,-104.11 144.01,-110.08"/>
</g>
<!-- Node6 -->
<g id="node6" class="node">
<title>Node6</title>
<g id="a_node6"><a xlink:href="../../dc/da1/_http_server_8hpp.html" target="_top" xlink:title=" ">
<polygon fill="none" stroke="black" points="179,-56.5 179,-75.5 334,-75.5 334,-56.5 179,-56.5"/>
<text text-anchor="middle" x="256.5" y="-63.5" font-family="Helvetica,sans-Serif" font-size="10.00">BoostServer/src/HttpServer.hpp</text>
</a>
</g>
</g>
<!-- Node4&#45;&gt;Node6 -->
<g id="edge5" class="edge">
<title>Node4&#45;&gt;Node6</title>
<path fill="none" stroke="midnightblue" d="M191.48,-106.9C207.61,-97 228.68,-84.07 242.4,-75.65"/>
<polygon fill="midnightblue" stroke="midnightblue" points="189.33,-104.11 182.64,-112.32 192.99,-110.08 189.33,-104.11"/>
</g>
<!-- Node7 -->
<g id="node7" class="node">
<title>Node7</title>
<g id="a_node7"><a xlink:href="../../dc/d40/_http_server_8cpp.html" target="_top" xlink:title=" ">
<polygon fill="none" stroke="black" points="98,-0.5 98,-19.5 253,-19.5 253,-0.5 98,-0.5"/>
<text text-anchor="middle" x="175.5" y="-7.5" font-family="Helvetica,sans-Serif" font-size="10.00">BoostServer/src/HttpServer.cpp</text>
</a>
</g>
</g>
<!-- Node6&#45;&gt;Node7 -->
<g id="edge6" class="edge">
<title>Node6&#45;&gt;Node7</title>
<path fill="none" stroke="midnightblue" d="M234.93,-50.62C220.14,-40.76 200.99,-27.99 188.48,-19.65"/>
<polygon fill="midnightblue" stroke="midnightblue" points="233.22,-53.69 243.49,-56.32 237.11,-47.86 233.22,-53.69"/>
</g>
<!-- Node8 -->
<g id="node8" class="node">
<title>Node8</title>
<g id="a_node8"><a xlink:href="../../df/d0a/main_8cpp.html" target="_top" xlink:title=" ">
<polygon fill="none" stroke="black" points="271.5,-0.5 271.5,-19.5 401.5,-19.5 401.5,-0.5 271.5,-0.5"/>
<text text-anchor="middle" x="336.5" y="-7.5" font-family="Helvetica,sans-Serif" font-size="10.00">BoostServer/src/main.cpp</text>
</a>
</g>
</g>
<!-- Node6&#45;&gt;Node8 -->
<g id="edge7" class="edge">
<title>Node6&#45;&gt;Node8</title>
<path fill="none" stroke="midnightblue" d="M277.8,-50.62C292.42,-40.76 311.33,-27.99 323.68,-19.65"/>
<polygon fill="midnightblue" stroke="midnightblue" points="275.68,-47.83 269.35,-56.32 279.6,-53.63 275.68,-47.83"/>
</g>
<!-- Node9&#45;&gt;Node4 -->
<g id="edge9" class="edge">
<title>Node9&#45;&gt;Node4</title>
<path fill="none" stroke="midnightblue" d="M253.93,-169.21C232.63,-157.69 202.43,-141.36 184.23,-131.51"/>
<polygon fill="midnightblue" stroke="midnightblue" points="252.28,-172.3 262.74,-173.98 255.61,-166.14 252.28,-172.3"/>
</g>
<!-- Node10 -->
<g id="node10" class="node">
<title>Node10</title>
<g id="a_node10"><a xlink:href="../../dc/df0/_http_session_8cpp.html" target="_top" xlink:title=" ">
<polygon fill="none" stroke="black" points="267,-112.5 267,-131.5 430,-131.5 430,-112.5 267,-112.5"/>
<text text-anchor="middle" x="348.5" y="-119.5" font-family="Helvetica,sans-Serif" font-size="10.00">BoostServer/src/HttpSession.cpp</text>
</a>
</g>
</g>
<!-- Node9&#45;&gt;Node10 -->
<g id="edge10" class="edge">
<title>Node9&#45;&gt;Node10</title>
<path fill="none" stroke="midnightblue" d="M296.18,-167.47C309.57,-156.09 327.48,-140.87 338.49,-131.51"/>
<polygon fill="midnightblue" stroke="midnightblue" points="293.88,-164.83 288.53,-173.98 298.42,-170.17 293.88,-164.83"/>
</g>
<!-- Node16 -->
<g id="node16" class="node">
<title>Node16</title>
<g id="a_node16"><a xlink:href="../../da/d59/_logger_console_8cpp.html" target="_top" xlink:title=" ">
<polygon fill="none" stroke="black" points="663,-235.5 663,-265.5 782,-265.5 782,-235.5 663,-235.5"/>
<text text-anchor="start" x="671" y="-253.5" font-family="Helvetica,sans-Serif" font-size="10.00">BoostServer/src/Logger</text>
<text text-anchor="middle" x="722.5" y="-242.5" font-family="Helvetica,sans-Serif" font-size="10.00">/LoggerConsole.cpp</text>
</a>
</g>
</g>
<!-- Node15&#45;&gt;Node16 -->
<g id="edge16" class="edge">
<title>Node15&#45;&gt;Node16</title>
<path fill="none" stroke="midnightblue" d="M722.5,-292.11C722.5,-283.15 722.5,-273.32 722.5,-265.58"/>
<polygon fill="midnightblue" stroke="midnightblue" points="719,-292.4 722.5,-302.4 726,-292.4 719,-292.4"/>
</g>
</g>
</svg>
        <g id="navigator" transform="translate(0 0)" fill="#404254">
                <rect fill="#f2f5e9" fill-opacity="0.5" stroke="#606060" stroke-width=".5" x="0" y="0" width="60" height="60"/>
                <use id="zoomplus" xlink:href="#zoomPlus" x="17" y="9" onmousedown="handleZoom(evt,'in')"/>
                <use id="zoomminus" xlink:href="#zoomMin" x="42" y="9" onmousedown="handleZoom(evt,'out')"/>
                <use id="reset" xlink:href="#resetDef" x="30" y="36" onmousedown="handleReset()"/>
                <g id="arrowUp" xlink:href="#dirArrow" transform="translate(30 24)" onmousedown="handlePan(0,-1)">
                  <use xlink:href="#rim" fill="#404040">
                        <set attributeName="fill" to="#808080" begin="arrowUp.mouseover" end="arrowUp.mouseout"/>
                  </use>
                  <path fill="none" stroke="white" stroke-width="1.5" d="M0,-3.0v7 M-2.5,-0.5L0,-3.0L2.5,-0.5"/>
                </g>
                <g id="arrowRight" xlink:href="#dirArrow" transform="rotate(90) translate(36 -43)" onmousedown="handlePan(1,0)">
                  <use xlink:href="#rim" fill="#404040">
                        <set attributeName="fill" to="#808080" begin="arrowRight.mouseover" end="arrowRight.mouseout"/>
                  </use>
                  <path fill="none" stroke="white" stroke-width="1.5" d="M0,-3.0v7 M-2.5,-0.5L0,-3.0L2.5,-0.5"/>
                </g>
                <g id="arrowDown" xlink:href="#dirArrow" transform="rotate(180) translate(-30 -48)" onmousedown="handlePan(0,1)">
                  <use xlink:href="#rim" fill="#404040">
                        <set attributeName="fill" to="#808080" begin="arrowDown.mouseover" end="arrowDown.mouseout"/>
                  </use>
                  <path fill="none" stroke="white" stroke-width="1.5" d="M0,-3.0v7 M-2.5,-0.5L0,-3.0L2.5,-0.5"/>
                </g>
                <g id="arrowLeft" xlink:href="#dirArrow" transform="rotate(270) translate(-36 17)" onmousedown="handlePan(-1,0)">
                  <use xlink:href="#rim" fill="#404040">
                        <set attributeName="fill" to="#808080" begin="arrowLeft.mouseover" end="arrowLeft.mouseout"/>
                  </use>
                  <path fill="none" stroke="white" stroke-width="1.5" d="M0,-3.0v7 M-2.5,-0.5L0,-3.0L2.5,-0.5"/>
                </g>
        </g>
        <svg viewBox="0 0 15 15" width="100%" height="30px" preserveAspectRatio="xMaxYMin meet">
         <g id="arrow_out" transform="scale(0.3 0.3)">
          <a xlink:href="_logger_8hpp__dep__incl_org.svg" target="_base">
           <rect id="button" ry="5" rx="5" y="6" x="6" height="38" width="38"
                fill="#f2f5e9" fill-opacity="0.5" stroke="#606060" stroke-width="1.0"/>
           <path id="arrow"
             d="M 11.500037,31.436501 C 11.940474,20.09759 22.043105,11.32322 32.158766,21.979434 L 37.068811,17.246167 C 37.068811,17.246167 37.088388,32 37.088388,32 L 22.160133,31.978069 C 22.160133,31.978069 26.997745,27.140456 26.997745,27.140456 C 18.528582,18.264221 13.291696,25.230495 11.500037,31.436501 z"
             style="fill:#404040;"/>
          </a>
         </g>
        </svg>
</svg>
