<?xml version="1.0" encoding="UTF-8" standalone="no"?>
<!DOCTYPE svg PUBLIC "-//W3C//DTD SVG 1.1//EN"
 "http://www.w3.org/Graphics/SVG/1.1/DTD/svg11.dtd">
<!-- Generated by graphviz version 2.44.1 (20200629.0846)
 -->
<!-- Title: BoostServer/src/HttpServer.hpp Pages: 1 -->
<svg width="735pt" height="364pt"
 viewBox="0.00 0.00 735.16 364.00" xmlns="http://www.w3.org/2000/svg" xmlns:xlink="http://www.w3.org/1999/xlink">
<g id="graph0" class="graph" transform="scale(1 1) rotate(0) translate(4 360)">
<title>BoostServer/src/HttpServer.hpp</title>
<!-- Node1 -->
<g id="node1" class="node">
<title>Node1</title>
<g id="a_node1"><a xlink:title=" ">
<polygon fill="#bfbfbf" stroke="black" points="128.5,-336.5 128.5,-355.5 283.5,-355.5 283.5,-336.5 128.5,-336.5"/>
<text text-anchor="middle" x="206" y="-343.5" font-family="Helvetica,sans-Serif" font-size="10.00">BoostServer/src/HttpServer.hpp</text>
</a>
</g>
</g>
<!-- Node2 -->
<g id="node2" class="node">
<title>Node2</title>
<g id="a_node2"><a xlink:title=" ">
<polygon fill="none" stroke="#bfbfbf" points="142,-280.5 142,-299.5 186,-299.5 186,-280.5 142,-280.5"/>
<text text-anchor="middle" x="164" y="-287.5" font-family="Helvetica,sans-Serif" font-size="10.00">thread</text>
</a>
</g>
</g>
<!-- Node1&#45;&gt;Node2 -->
<g id="edge1" class="edge">
<title>Node1&#45;&gt;Node2</title>
<path fill="none" stroke="midnightblue" d="M199.06,-336.08C193.07,-328.38 184.25,-317.03 176.95,-307.65"/>
<polygon fill="midnightblue" stroke="midnightblue" points="179.71,-305.5 170.81,-299.75 174.18,-309.79 179.71,-305.5"/>
</g>
<!-- Node3 -->
<g id="node3" class="node">
<title>Node3</title>
<g id="a_node3"><a xlink:href="../../dd/d4c/_http_listener_8hpp.html" target="_top" xlink:title=" ">
<polygon fill="none" stroke="black" points="204,-280.5 204,-299.5 292,-299.5 292,-280.5 204,-280.5"/>
<text text-anchor="middle" x="248" y="-287.5" font-family="Helvetica,sans-Serif" font-size="10.00">HttpListener.hpp</text>
</a>
</g>
</g>
<!-- Node1&#45;&gt;Node3 -->
<g id="edge2" class="edge">
<title>Node1&#45;&gt;Node3</title>
<path fill="none" stroke="midnightblue" d="M212.94,-336.08C218.93,-328.38 227.75,-317.03 235.05,-307.65"/>
<polygon fill="midnightblue" stroke="midnightblue" points="237.82,-309.79 241.19,-299.75 232.29,-305.5 237.82,-309.79"/>
</g>
<!-- Node4 -->
<g id="node4" class="node">
<title>Node4</title>
<g id="a_node4"><a xlink:title=" ">
<polygon fill="none" stroke="#bfbfbf" points="0,-168.5 0,-187.5 120,-187.5 120,-168.5 0,-168.5"/>
<text text-anchor="middle" x="60" y="-175.5" font-family="Helvetica,sans-Serif" font-size="10.00">boost/asio/dispatch.hpp</text>
</a>
</g>
</g>
<!-- Node3&#45;&gt;Node4 -->
<g id="edge3" class="edge">
<title>Node3&#45;&gt;Node4</title>
<path fill="none" stroke="midnightblue" d="M233.25,-280.37C200.71,-261.33 122.58,-215.62 83.33,-192.65"/>
<polygon fill="midnightblue" stroke="midnightblue" points="85.08,-189.62 74.68,-187.59 81.55,-195.66 85.08,-189.62"/>
</g>
<!-- Node5 -->
<g id="node5" class="node">
<title>Node5</title>
<g id="a_node5"><a xlink:title=" ">
<polygon fill="none" stroke="#bfbfbf" points="138,-168.5 138,-187.5 248,-187.5 248,-168.5 138,-168.5"/>
<text text-anchor="middle" x="193" y="-175.5" font-family="Helvetica,sans-Serif" font-size="10.00">boost/asio/strand.hpp</text>
</a>
</g>
</g>
<!-- Node3&#45;&gt;Node5 -->
<g id="edge4" class="edge">
<title>Node3&#45;&gt;Node5</title>
<path fill="none" stroke="midnightblue" d="M243.68,-280.37C234.69,-262.38 213.78,-220.55 201.81,-196.63"/>
<polygon fill="midnightblue" stroke="midnightblue" points="204.9,-194.97 197.3,-187.59 198.64,-198.1 204.9,-194.97"/>
</g>
<!-- Node6 -->
<g id="node6" class="node">
<title>Node6</title>
<g id="a_node6"><a xlink:href="../../d4/d90/_http_utils_8hpp.html" target="_top" xlink:title=" ">
<polygon fill="none" stroke="black" points="266,-168.5 266,-187.5 340,-187.5 340,-168.5 266,-168.5"/>
<text text-anchor="middle" x="303" y="-175.5" font-family="Helvetica,sans-Serif" font-size="10.00">HttpUtils.hpp</text>
</a>
</g>
</g>
<!-- Node3&#45;&gt;Node6 -->
<g id="edge5" class="edge">
<title>Node3&#45;&gt;Node6</title>
<path fill="none" stroke="midnightblue" d="M252.32,-280.37C261.31,-262.38 282.22,-220.55 294.19,-196.63"/>
<polygon fill="midnightblue" stroke="midnightblue" points="297.36,-198.1 298.7,-187.59 291.1,-194.97 297.36,-198.1"/>
</g>
<!-- Node12 -->
<g id="node12" class="node">
<title>Node12</title>
<g id="a_node12"><a xlink:href="../../d7/dc1/_http_session_8hpp.html" target="_top" xlink:title=" ">
<polygon fill="none" stroke="black" points="348.5,-224.5 348.5,-243.5 437.5,-243.5 437.5,-224.5 348.5,-224.5"/>
<text text-anchor="middle" x="393" y="-231.5" font-family="Helvetica,sans-Serif" font-size="10.00">HttpSession.hpp</text>
</a>
</g>
</g>
<!-- Node3&#45;&gt;Node12 -->
<g id="edge12" class="edge">
<title>Node3&#45;&gt;Node12</title>
<path fill="none" stroke="midnightblue" d="M270.98,-280.44C295.16,-271.44 333.42,-257.19 360.65,-247.05"/>
<polygon fill="midnightblue" stroke="midnightblue" points="361.98,-250.29 370.13,-243.52 359.54,-243.73 361.98,-250.29"/>
</g>
<!-- Node7 -->
<g id="node7" class="node">
<title>Node7</title>
<g id="a_node7"><a xlink:title=" ">
<polygon fill="none" stroke="#bfbfbf" points="531,-112.5 531,-131.5 639,-131.5 639,-112.5 531,-112.5"/>
<text text-anchor="middle" x="585" y="-119.5" font-family="Helvetica,sans-Serif" font-size="10.00">boost/beast/core.hpp</text>
</a>
</g>
</g>
<!-- Node6&#45;&gt;Node7 -->
<g id="edge6" class="edge">
<title>Node6&#45;&gt;Node7</title>
<path fill="none" stroke="midnightblue" d="M340.15,-169.71C343.15,-169.13 346.12,-168.56 349,-168 410.94,-156.04 482.06,-142.5 529.9,-133.43"/>
<polygon fill="midnightblue" stroke="midnightblue" points="530.57,-136.86 539.74,-131.56 529.27,-129.99 530.57,-136.86"/>
</g>
<!-- Node8 -->
<g id="node8" class="node">
<title>Node8</title>
<g id="a_node8"><a xlink:href="../../d7/d17/_logger_file_8hpp.html" target="_top" xlink:title=" ">
<polygon fill="none" stroke="black" points="246.5,-112.5 246.5,-131.5 359.5,-131.5 359.5,-112.5 246.5,-112.5"/>
<text text-anchor="middle" x="303" y="-119.5" font-family="Helvetica,sans-Serif" font-size="10.00">Logger/LoggerFile.hpp</text>
</a>
</g>
</g>
<!-- Node6&#45;&gt;Node8 -->
<g id="edge7" class="edge">
<title>Node6&#45;&gt;Node8</title>
<path fill="none" stroke="midnightblue" d="M303,-168.08C303,-161.01 303,-150.86 303,-141.99"/>
<polygon fill="midnightblue" stroke="midnightblue" points="306.5,-141.75 303,-131.75 299.5,-141.75 306.5,-141.75"/>
</g>
<!-- Node9 -->
<g id="node9" class="node">
<title>Node9</title>
<g id="a_node9"><a xlink:href="../../d3/de3/_logger_8hpp.html" target="_top" xlink:title=" ">
<polygon fill="none" stroke="black" points="211,-56.5 211,-75.5 275,-75.5 275,-56.5 211,-56.5"/>
<text text-anchor="middle" x="243" y="-63.5" font-family="Helvetica,sans-Serif" font-size="10.00">Logger.hpp</text>
</a>
</g>
</g>
<!-- Node8&#45;&gt;Node9 -->
<g id="edge8" class="edge">
<title>Node8&#45;&gt;Node9</title>
<path fill="none" stroke="midnightblue" d="M293.36,-112.32C284.49,-104.34 271.13,-92.31 260.39,-82.65"/>
<polygon fill="midnightblue" stroke="midnightblue" points="262.59,-79.92 252.82,-75.83 257.91,-85.13 262.59,-79.92"/>
</g>
<!-- Node10 -->
<g id="node10" class="node">
<title>Node10</title>
<g id="a_node10"><a xlink:title=" ">
<polygon fill="none" stroke="#bfbfbf" points="252.5,-0.5 252.5,-19.5 293.5,-19.5 293.5,-0.5 252.5,-0.5"/>
<text text-anchor="middle" x="273" y="-7.5" font-family="Helvetica,sans-Serif" font-size="10.00">string</text>
</a>
</g>
</g>
<!-- Node8&#45;&gt;Node10 -->
<g id="edge10" class="edge">
<title>Node8&#45;&gt;Node10</title>
<path fill="none" stroke="midnightblue" d="M300.65,-112.37C295.78,-94.54 284.54,-53.3 277.98,-29.27"/>
<polygon fill="midnightblue" stroke="midnightblue" points="281.35,-28.32 275.34,-19.59 274.6,-30.16 281.35,-28.32"/>
</g>
<!-- Node11 -->
<g id="node11" class="node">
<title>Node11</title>
<g id="a_node11"><a xlink:title=" ">
<polygon fill="none" stroke="#bfbfbf" points="331,-56.5 331,-75.5 381,-75.5 381,-56.5 331,-56.5"/>
<text text-anchor="middle" x="356" y="-63.5" font-family="Helvetica,sans-Serif" font-size="10.00">fstream</text>
</a>
</g>
</g>
<!-- Node8&#45;&gt;Node11 -->
<g id="edge11" class="edge">
<title>Node8&#45;&gt;Node11</title>
<path fill="none" stroke="midnightblue" d="M311.75,-112.08C319.47,-104.22 330.9,-92.57 340.22,-83.08"/>
<polygon fill="midnightblue" stroke="midnightblue" points="342.9,-85.34 347.41,-75.75 337.91,-80.44 342.9,-85.34"/>
</g>
<!-- Node9&#45;&gt;Node10 -->
<g id="edge9" class="edge">
<title>Node9&#45;&gt;Node10</title>
<path fill="none" stroke="midnightblue" d="M247.95,-56.08C252.1,-48.61 258.15,-37.72 263.27,-28.52"/>
<polygon fill="midnightblue" stroke="midnightblue" points="266.34,-30.19 268.14,-19.75 260.22,-26.79 266.34,-30.19"/>
</g>
<!-- Node12&#45;&gt;Node4 -->
<g id="edge16" class="edge">
<title>Node12&#45;&gt;Node4</title>
<path fill="none" stroke="midnightblue" d="M348.44,-225.77C290.4,-216.36 188.6,-199.85 122.77,-189.18"/>
<polygon fill="midnightblue" stroke="midnightblue" points="122.96,-185.66 112.53,-187.52 121.84,-192.57 122.96,-185.66"/>
</g>
<!-- Node12&#45;&gt;Node5 -->
<g id="edge17" class="edge">
<title>Node12&#45;&gt;Node5</title>
<path fill="none" stroke="midnightblue" d="M361.31,-224.44C326.93,-215.16 271.92,-200.31 234.21,-190.13"/>
<polygon fill="midnightblue" stroke="midnightblue" points="235.11,-186.74 224.54,-187.52 233.28,-193.5 235.11,-186.74"/>
</g>
<!-- Node12&#45;&gt;Node6 -->
<g id="edge19" class="edge">
<title>Node12&#45;&gt;Node6</title>
<path fill="none" stroke="midnightblue" d="M378.54,-224.32C364.5,-215.9 342.95,-202.97 326.46,-193.07"/>
<polygon fill="midnightblue" stroke="midnightblue" points="327.8,-189.8 317.42,-187.65 324.2,-195.8 327.8,-189.8"/>
</g>
<!-- Node12&#45;&gt;Node7 -->
<g id="edge13" class="edge">
<title>Node12&#45;&gt;Node7</title>
<path fill="none" stroke="midnightblue" d="M437.63,-233.75C518.42,-234.03 683.9,-229.41 720,-188 745.48,-158.77 695.52,-141.54 649.33,-132.25"/>
<polygon fill="midnightblue" stroke="midnightblue" points="649.73,-128.76 639.25,-130.33 648.42,-135.64 649.73,-128.76"/>
</g>
<!-- Node13 -->
<g id="node13" class="node">
<title>Node13</title>
<g id="a_node13"><a xlink:title=" ">
<polygon fill="none" stroke="#bfbfbf" points="358,-168.5 358,-187.5 464,-187.5 464,-168.5 358,-168.5"/>
<text text-anchor="middle" x="411" y="-175.5" font-family="Helvetica,sans-Serif" font-size="10.00">boost/beast/http.hpp</text>
</a>
</g>
</g>
<!-- Node12&#45;&gt;Node13 -->
<g id="edge14" class="edge">
<title>Node12&#45;&gt;Node13</title>
<path fill="none" stroke="midnightblue" d="M395.97,-224.08C398.38,-216.85 401.86,-206.41 404.87,-197.4"/>
<polygon fill="midnightblue" stroke="midnightblue" points="408.24,-198.34 408.08,-187.75 401.6,-196.13 408.24,-198.34"/>
</g>
<!-- Node14 -->
<g id="node14" class="node">
<title>Node14</title>
<g id="a_node14"><a xlink:title=" ">
<polygon fill="none" stroke="#bfbfbf" points="482.5,-168.5 482.5,-187.5 603.5,-187.5 603.5,-168.5 482.5,-168.5"/>
<text text-anchor="middle" x="543" y="-175.5" font-family="Helvetica,sans-Serif" font-size="10.00">boost/beast/version.hpp</text>
</a>
</g>
</g>
<!-- Node12&#45;&gt;Node14 -->
<g id="edge15" class="edge">
<title>Node12&#45;&gt;Node14</title>
<path fill="none" stroke="midnightblue" d="M416.77,-224.44C441.89,-215.4 481.71,-201.06 509.9,-190.92"/>
<polygon fill="midnightblue" stroke="midnightblue" points="511.12,-194.2 519.34,-187.52 508.75,-187.61 511.12,-194.2"/>
</g>
<!-- Node15 -->
<g id="node15" class="node">
<title>Node15</title>
<g id="a_node15"><a xlink:title=" ">
<polygon fill="none" stroke="#bfbfbf" points="621.5,-168.5 621.5,-187.5 710.5,-187.5 710.5,-168.5 621.5,-168.5"/>
<text text-anchor="middle" x="666" y="-175.5" font-family="Helvetica,sans-Serif" font-size="10.00">boost/config.hpp</text>
</a>
</g>
</g>
<!-- Node12&#45;&gt;Node15 -->
<g id="edge18" class="edge">
<title>Node12&#45;&gt;Node15</title>
<path fill="none" stroke="midnightblue" d="M436.26,-224.44C484.18,-214.96 561.48,-199.67 613,-189.48"/>
<polygon fill="midnightblue" stroke="midnightblue" points="613.81,-192.89 622.94,-187.52 612.46,-186.02 613.81,-192.89"/>
</g>
</g>
</svg>
