<?xml version="1.0" encoding="UTF-8" standalone="no"?>
<!DOCTYPE svg PUBLIC "-//W3C//DTD SVG 1.1//EN"
 "http://www.w3.org/Graphics/SVG/1.1/DTD/svg11.dtd">
<!-- Generated by graphviz version 2.44.1 (20200629.0846)
 -->
<!-- Title: BoostServer/src/main.cpp Pages: 1 -->
<svg width="1059pt" height="431pt"
 viewBox="0.00 0.00 1059.00 431.00" xmlns="http://www.w3.org/2000/svg" xmlns:xlink="http://www.w3.org/1999/xlink">
<g id="graph0" class="graph" transform="scale(1 1) rotate(0) translate(4 427)">
<title>BoostServer/src/main.cpp</title>
<!-- Node1 -->
<g id="node1" class="node">
<title>Node1</title>
<g id="a_node1"><a xlink:title=" ">
<polygon fill="#bfbfbf" stroke="black" points="499,-403.5 499,-422.5 629,-422.5 629,-403.5 499,-403.5"/>
<text text-anchor="middle" x="564" y="-410.5" font-family="Helvetica,sans-Serif" font-size="10.00">BoostServer/src/main.cpp</text>
</a>
</g>
</g>
<!-- Node2 -->
<g id="node2" class="node">
<title>Node2</title>
<g id="a_node2"><a xlink:href="../../dc/da1/_http_server_8hpp.html" target="_top" xlink:title=" ">
<polygon fill="none" stroke="black" points="480,-347.5 480,-366.5 562,-366.5 562,-347.5 480,-347.5"/>
<text text-anchor="middle" x="521" y="-354.5" font-family="Helvetica,sans-Serif" font-size="10.00">HttpServer.hpp</text>
</a>
</g>
</g>
<!-- Node1&#45;&gt;Node2 -->
<g id="edge1" class="edge">
<title>Node1&#45;&gt;Node2</title>
<path fill="none" stroke="midnightblue" d="M556.9,-403.08C550.76,-395.38 541.73,-384.03 534.26,-374.65"/>
<polygon fill="midnightblue" stroke="midnightblue" points="536.94,-372.39 527.97,-366.75 531.46,-376.75 536.94,-372.39"/>
</g>
<!-- Node20 -->
<g id="node20" class="node">
<title>Node20</title>
<g id="a_node20"><a xlink:title=" ">
<polygon fill="none" stroke="#bfbfbf" points="580,-347.5 580,-366.5 634,-366.5 634,-347.5 580,-347.5"/>
<text text-anchor="middle" x="607" y="-354.5" font-family="Helvetica,sans-Serif" font-size="10.00">iostream</text>
</a>
</g>
</g>
<!-- Node1&#45;&gt;Node20 -->
<g id="edge24" class="edge">
<title>Node1&#45;&gt;Node20</title>
<path fill="none" stroke="midnightblue" d="M571.1,-403.08C577.24,-395.38 586.27,-384.03 593.74,-374.65"/>
<polygon fill="midnightblue" stroke="midnightblue" points="596.54,-376.75 600.03,-366.75 591.06,-372.39 596.54,-376.75"/>
</g>
<!-- Node3 -->
<g id="node3" class="node">
<title>Node3</title>
<g id="a_node3"><a xlink:href="../../dd/d4c/_http_listener_8hpp.html" target="_top" xlink:title=" ">
<polygon fill="none" stroke="black" points="351,-291.5 351,-310.5 439,-310.5 439,-291.5 351,-291.5"/>
<text text-anchor="middle" x="395" y="-298.5" font-family="Helvetica,sans-Serif" font-size="10.00">HttpListener.hpp</text>
</a>
</g>
</g>
<!-- Node2&#45;&gt;Node3 -->
<g id="edge2" class="edge">
<title>Node2&#45;&gt;Node3</title>
<path fill="none" stroke="midnightblue" d="M501.03,-347.44C480.39,-338.6 447.94,-324.69 424.37,-314.59"/>
<polygon fill="midnightblue" stroke="midnightblue" points="425.44,-311.24 414.87,-310.52 422.68,-317.67 425.44,-311.24"/>
</g>
<!-- Node18 -->
<g id="node18" class="node">
<title>Node18</title>
<g id="a_node18"><a xlink:title=" ">
<polygon fill="none" stroke="#bfbfbf" points="457,-291.5 457,-310.5 585,-310.5 585,-291.5 457,-291.5"/>
<text text-anchor="middle" x="521" y="-298.5" font-family="Helvetica,sans-Serif" font-size="10.00">boost/asio/signal_set.hpp</text>
</a>
</g>
</g>
<!-- Node2&#45;&gt;Node18 -->
<g id="edge22" class="edge">
<title>Node2&#45;&gt;Node18</title>
<path fill="none" stroke="midnightblue" d="M521,-347.08C521,-340.01 521,-329.86 521,-320.99"/>
<polygon fill="midnightblue" stroke="midnightblue" points="524.5,-320.75 521,-310.75 517.5,-320.75 524.5,-320.75"/>
</g>
<!-- Node19 -->
<g id="node19" class="node">
<title>Node19</title>
<g id="a_node19"><a xlink:title=" ">
<polygon fill="none" stroke="#bfbfbf" points="603,-291.5 603,-310.5 647,-310.5 647,-291.5 603,-291.5"/>
<text text-anchor="middle" x="625" y="-298.5" font-family="Helvetica,sans-Serif" font-size="10.00">thread</text>
</a>
</g>
</g>
<!-- Node2&#45;&gt;Node19 -->
<g id="edge23" class="edge">
<title>Node2&#45;&gt;Node19</title>
<path fill="none" stroke="midnightblue" d="M537.71,-347.32C554.31,-338.7 580,-325.36 599.22,-315.39"/>
<polygon fill="midnightblue" stroke="midnightblue" points="601.07,-318.37 608.33,-310.65 597.84,-312.16 601.07,-318.37"/>
</g>
<!-- Node4 -->
<g id="node4" class="node">
<title>Node4</title>
<g id="a_node4"><a xlink:title=" ">
<polygon fill="none" stroke="#bfbfbf" points="0,-174 0,-193 120,-193 120,-174 0,-174"/>
<text text-anchor="middle" x="60" y="-181" font-family="Helvetica,sans-Serif" font-size="10.00">boost/asio/dispatch.hpp</text>
</a>
</g>
</g>
<!-- Node3&#45;&gt;Node4 -->
<g id="edge3" class="edge">
<title>Node3&#45;&gt;Node4</title>
<path fill="none" stroke="midnightblue" d="M370.09,-291.41C311.1,-271.07 162.73,-219.92 94.86,-196.52"/>
<polygon fill="midnightblue" stroke="midnightblue" points="95.66,-193.09 85.07,-193.14 93.38,-199.71 95.66,-193.09"/>
</g>
<!-- Node5 -->
<g id="node5" class="node">
<title>Node5</title>
<g id="a_node5"><a xlink:title=" ">
<polygon fill="none" stroke="#bfbfbf" points="138,-174 138,-193 248,-193 248,-174 138,-174"/>
<text text-anchor="middle" x="193" y="-181" font-family="Helvetica,sans-Serif" font-size="10.00">boost/asio/strand.hpp</text>
</a>
</g>
</g>
<!-- Node3&#45;&gt;Node5 -->
<g id="edge4" class="edge">
<title>Node3&#45;&gt;Node5</title>
<path fill="none" stroke="midnightblue" d="M379.82,-291.32C344.93,-271.37 258.82,-222.14 216.82,-198.12"/>
<polygon fill="midnightblue" stroke="midnightblue" points="218.5,-195.05 208.08,-193.12 215.03,-201.13 218.5,-195.05"/>
</g>
<!-- Node6 -->
<g id="node6" class="node">
<title>Node6</title>
<g id="a_node6"><a xlink:href="../../d7/dc1/_http_session_8hpp.html" target="_top" xlink:title=" ">
<polygon fill="none" stroke="black" points="438.5,-235.5 438.5,-254.5 527.5,-254.5 527.5,-235.5 438.5,-235.5"/>
<text text-anchor="middle" x="483" y="-242.5" font-family="Helvetica,sans-Serif" font-size="10.00">HttpSession.hpp</text>
</a>
</g>
</g>
<!-- Node3&#45;&gt;Node6 -->
<g id="edge5" class="edge">
<title>Node3&#45;&gt;Node6</title>
<path fill="none" stroke="midnightblue" d="M409.14,-291.32C422.87,-282.9 443.94,-269.97 460.06,-260.07"/>
<polygon fill="midnightblue" stroke="midnightblue" points="462.2,-262.87 468.9,-254.65 458.54,-256.9 462.2,-262.87"/>
</g>
<!-- Node13 -->
<g id="node13" class="node">
<title>Node13</title>
<g id="a_node13"><a xlink:href="../../d4/d90/_http_utils_8hpp.html" target="_top" xlink:title=" ">
<polygon fill="none" stroke="black" points="914,-174 914,-193 988,-193 988,-174 914,-174"/>
<text text-anchor="middle" x="951" y="-181" font-family="Helvetica,sans-Serif" font-size="10.00">HttpUtils.hpp</text>
</a>
</g>
</g>
<!-- Node3&#45;&gt;Node13 -->
<g id="edge21" class="edge">
<title>Node3&#45;&gt;Node13</title>
<path fill="none" stroke="midnightblue" d="M439.23,-291.83C545.91,-272.04 815.13,-221.46 904,-199 907.61,-198.09 911.35,-197.07 915.07,-196"/>
<polygon fill="midnightblue" stroke="midnightblue" points="916.2,-199.32 924.79,-193.11 914.2,-192.61 916.2,-199.32"/>
</g>
<!-- Node6&#45;&gt;Node4 -->
<g id="edge6" class="edge">
<title>Node6&#45;&gt;Node4</title>
<path fill="none" stroke="midnightblue" d="M438.4,-239.5C371.12,-232.44 239.73,-217.64 129,-199 122.19,-197.85 115.03,-196.51 108,-195.11"/>
<polygon fill="midnightblue" stroke="midnightblue" points="108.36,-191.61 97.86,-193.03 106.95,-198.46 108.36,-191.61"/>
</g>
<!-- Node6&#45;&gt;Node5 -->
<g id="edge7" class="edge">
<title>Node6&#45;&gt;Node5</title>
<path fill="none" stroke="midnightblue" d="M438.33,-235.46C392.69,-226.66 319.8,-212.36 257,-199 251.5,-197.83 245.74,-196.57 240.02,-195.3"/>
<polygon fill="midnightblue" stroke="midnightblue" points="240.38,-191.79 229.85,-193.02 238.85,-198.62 240.38,-191.79"/>
</g>
<!-- Node7 -->
<g id="node7" class="node">
<title>Node7</title>
<g id="a_node7"><a xlink:title=" ">
<polygon fill="none" stroke="#bfbfbf" points="668,-112.5 668,-131.5 776,-131.5 776,-112.5 668,-112.5"/>
<text text-anchor="middle" x="722" y="-119.5" font-family="Helvetica,sans-Serif" font-size="10.00">boost/beast/core.hpp</text>
</a>
</g>
</g>
<!-- Node6&#45;&gt;Node7 -->
<g id="edge8" class="edge">
<title>Node6&#45;&gt;Node7</title>
<path fill="none" stroke="midnightblue" d="M513.49,-235.35C538.24,-227.66 573.58,-215.15 602,-199 621.25,-188.06 622.59,-180.31 641,-168 658.66,-156.19 679.66,-144.59 695.85,-136.12"/>
<polygon fill="midnightblue" stroke="midnightblue" points="697.48,-139.22 704.77,-131.52 694.28,-133 697.48,-139.22"/>
</g>
<!-- Node8 -->
<g id="node8" class="node">
<title>Node8</title>
<g id="a_node8"><a xlink:title=" ">
<polygon fill="none" stroke="#bfbfbf" points="650,-174 650,-193 756,-193 756,-174 650,-174"/>
<text text-anchor="middle" x="703" y="-181" font-family="Helvetica,sans-Serif" font-size="10.00">boost/beast/http.hpp</text>
</a>
</g>
</g>
<!-- Node6&#45;&gt;Node8 -->
<g id="edge9" class="edge">
<title>Node6&#45;&gt;Node8</title>
<path fill="none" stroke="midnightblue" d="M514.52,-235.48C553.24,-225 619.02,-207.21 661.74,-195.66"/>
<polygon fill="midnightblue" stroke="midnightblue" points="662.8,-199 671.54,-193.01 660.97,-192.24 662.8,-199"/>
</g>
<!-- Node9 -->
<g id="node9" class="node">
<title>Node9</title>
<g id="a_node9"><a xlink:title=" ">
<polygon fill="none" stroke="#bfbfbf" points="774.5,-174 774.5,-193 895.5,-193 895.5,-174 774.5,-174"/>
<text text-anchor="middle" x="835" y="-181" font-family="Helvetica,sans-Serif" font-size="10.00">boost/beast/version.hpp</text>
</a>
</g>
</g>
<!-- Node6&#45;&gt;Node9 -->
<g id="edge10" class="edge">
<title>Node6&#45;&gt;Node9</title>
<path fill="none" stroke="midnightblue" d="M527.55,-237.54C583.23,-229.31 681.37,-214.33 765,-199 771.64,-197.78 778.63,-196.43 785.5,-195.05"/>
<polygon fill="midnightblue" stroke="midnightblue" points="786.35,-198.45 795.45,-193.02 784.95,-191.59 786.35,-198.45"/>
</g>
<!-- Node10 -->
<g id="node10" class="node">
<title>Node10</title>
<g id="a_node10"><a xlink:title=" ">
<polygon fill="none" stroke="#bfbfbf" points="266.5,-174 266.5,-193 355.5,-193 355.5,-174 266.5,-174"/>
<text text-anchor="middle" x="311" y="-181" font-family="Helvetica,sans-Serif" font-size="10.00">boost/config.hpp</text>
</a>
</g>
</g>
<!-- Node6&#45;&gt;Node10 -->
<g id="edge11" class="edge">
<title>Node6&#45;&gt;Node10</title>
<path fill="none" stroke="midnightblue" d="M458.36,-235.48C428.72,-225.22 378.82,-207.96 345.4,-196.4"/>
<polygon fill="midnightblue" stroke="midnightblue" points="346.19,-192.97 335.6,-193.01 343.9,-199.59 346.19,-192.97"/>
</g>
<!-- Node11 -->
<g id="node11" class="node">
<title>Node11</title>
<g id="a_node11"><a xlink:title=" ">
<polygon fill="none" stroke="#bfbfbf" points="373.5,-168.5 373.5,-198.5 474.5,-198.5 474.5,-168.5 373.5,-168.5"/>
<text text-anchor="start" x="381.5" y="-186.5" font-family="Helvetica,sans-Serif" font-size="10.00">boost/property_tree</text>
<text text-anchor="middle" x="424" y="-175.5" font-family="Helvetica,sans-Serif" font-size="10.00">/json_parser.hpp</text>
</a>
</g>
</g>
<!-- Node6&#45;&gt;Node11 -->
<g id="edge12" class="edge">
<title>Node6&#45;&gt;Node11</title>
<path fill="none" stroke="midnightblue" d="M474.55,-235.48C466.85,-227.72 455.18,-215.94 444.99,-205.66"/>
<polygon fill="midnightblue" stroke="midnightblue" points="447.43,-203.16 437.91,-198.52 442.46,-208.09 447.43,-203.16"/>
</g>
<!-- Node12 -->
<g id="node12" class="node">
<title>Node12</title>
<g id="a_node12"><a xlink:title=" ">
<polygon fill="none" stroke="#bfbfbf" points="492.5,-168.5 492.5,-198.5 593.5,-198.5 593.5,-168.5 492.5,-168.5"/>
<text text-anchor="start" x="500.5" y="-186.5" font-family="Helvetica,sans-Serif" font-size="10.00">boost/property_tree</text>
<text text-anchor="middle" x="543" y="-175.5" font-family="Helvetica,sans-Serif" font-size="10.00">/ptree.hpp</text>
</a>
</g>
</g>
<!-- Node6&#45;&gt;Node12 -->
<g id="edge13" class="edge">
<title>Node6&#45;&gt;Node12</title>
<path fill="none" stroke="midnightblue" d="M491.6,-235.48C499.42,-227.72 511.29,-215.94 521.66,-205.66"/>
<polygon fill="midnightblue" stroke="midnightblue" points="524.22,-208.05 528.86,-198.52 519.29,-203.08 524.22,-208.05"/>
</g>
<!-- Node6&#45;&gt;Node13 -->
<g id="edge14" class="edge">
<title>Node6&#45;&gt;Node13</title>
<path fill="none" stroke="midnightblue" d="M527.68,-242.06C605.04,-238.06 768.64,-226.84 904,-199 908.14,-198.15 912.44,-197.08 916.67,-195.92"/>
<polygon fill="midnightblue" stroke="midnightblue" points="917.74,-199.26 926.35,-193.08 915.77,-192.54 917.74,-199.26"/>
</g>
<!-- Node13&#45;&gt;Node7 -->
<g id="edge20" class="edge">
<title>Node13&#45;&gt;Node7</title>
<path fill="none" stroke="midnightblue" d="M924.23,-173.95C917.64,-171.93 910.58,-169.83 904,-168 858.42,-155.34 805.93,-142.56 769.07,-133.86"/>
<polygon fill="midnightblue" stroke="midnightblue" points="769.65,-130.4 759.11,-131.52 768.04,-137.22 769.65,-130.4"/>
</g>
<!-- Node14 -->
<g id="node14" class="node">
<title>Node14</title>
<g id="a_node14"><a xlink:href="../../d7/d17/_logger_file_8hpp.html" target="_top" xlink:title=" ">
<polygon fill="none" stroke="black" points="894.5,-112.5 894.5,-131.5 1007.5,-131.5 1007.5,-112.5 894.5,-112.5"/>
<text text-anchor="middle" x="951" y="-119.5" font-family="Helvetica,sans-Serif" font-size="10.00">Logger/LoggerFile.hpp</text>
</a>
</g>
</g>
<!-- Node13&#45;&gt;Node14 -->
<g id="edge15" class="edge">
<title>Node13&#45;&gt;Node14</title>
<path fill="none" stroke="midnightblue" d="M951,-173.98C951,-165.58 951,-152.48 951,-141.66"/>
<polygon fill="midnightblue" stroke="midnightblue" points="954.5,-141.51 951,-131.51 947.5,-141.51 954.5,-141.51"/>
</g>
<!-- Node15 -->
<g id="node15" class="node">
<title>Node15</title>
<g id="a_node15"><a xlink:href="../../d3/de3/_logger_8hpp.html" target="_top" xlink:title=" ">
<polygon fill="none" stroke="black" points="919,-56.5 919,-75.5 983,-75.5 983,-56.5 919,-56.5"/>
<text text-anchor="middle" x="951" y="-63.5" font-family="Helvetica,sans-Serif" font-size="10.00">Logger.hpp</text>
</a>
</g>
</g>
<!-- Node14&#45;&gt;Node15 -->
<g id="edge16" class="edge">
<title>Node14&#45;&gt;Node15</title>
<path fill="none" stroke="midnightblue" d="M951,-112.08C951,-105.01 951,-94.86 951,-85.99"/>
<polygon fill="midnightblue" stroke="midnightblue" points="954.5,-85.75 951,-75.75 947.5,-85.75 954.5,-85.75"/>
</g>
<!-- Node16 -->
<g id="node16" class="node">
<title>Node16</title>
<g id="a_node16"><a xlink:title=" ">
<polygon fill="none" stroke="#bfbfbf" points="900.5,-0.5 900.5,-19.5 941.5,-19.5 941.5,-0.5 900.5,-0.5"/>
<text text-anchor="middle" x="921" y="-7.5" font-family="Helvetica,sans-Serif" font-size="10.00">string</text>
</a>
</g>
</g>
<!-- Node14&#45;&gt;Node16 -->
<g id="edge18" class="edge">
<title>Node14&#45;&gt;Node16</title>
<path fill="none" stroke="midnightblue" d="M939.46,-112.49C929.52,-104.38 915.88,-91.18 910,-76 904.13,-60.84 908.16,-42.49 912.91,-29.16"/>
<polygon fill="midnightblue" stroke="midnightblue" points="916.23,-30.29 916.7,-19.71 909.73,-27.69 916.23,-30.29"/>
</g>
<!-- Node17 -->
<g id="node17" class="node">
<title>Node17</title>
<g id="a_node17"><a xlink:title=" ">
<polygon fill="none" stroke="#bfbfbf" points="1001,-56.5 1001,-75.5 1051,-75.5 1051,-56.5 1001,-56.5"/>
<text text-anchor="middle" x="1026" y="-63.5" font-family="Helvetica,sans-Serif" font-size="10.00">fstream</text>
</a>
</g>
</g>
<!-- Node14&#45;&gt;Node17 -->
<g id="edge19" class="edge">
<title>Node14&#45;&gt;Node17</title>
<path fill="none" stroke="midnightblue" d="M963.05,-112.32C974.46,-104.11 991.83,-91.6 1005.43,-81.81"/>
<polygon fill="midnightblue" stroke="midnightblue" points="1007.66,-84.52 1013.73,-75.83 1003.57,-78.84 1007.66,-84.52"/>
</g>
<!-- Node15&#45;&gt;Node16 -->
<g id="edge17" class="edge">
<title>Node15&#45;&gt;Node16</title>
<path fill="none" stroke="midnightblue" d="M946.05,-56.08C941.9,-48.61 935.85,-37.72 930.73,-28.52"/>
<polygon fill="midnightblue" stroke="midnightblue" points="933.78,-26.79 925.86,-19.75 927.66,-30.19 933.78,-26.79"/>
</g>
</g>
</svg>
