<?xml version="1.0" encoding="UTF-8" standalone="no"?>
<!DOCTYPE svg PUBLIC "-//W3C//DTD SVG 1.1//EN"
 "http://www.w3.org/Graphics/SVG/1.1/DTD/svg11.dtd">
<!-- Generated by graphviz version 2.44.1 (20200629.0846)
 -->
<!-- Title: Logger Pages: 1 -->
<svg width="192pt" height="226pt"
 viewBox="0.00 0.00 191.50 226.00" xmlns="http://www.w3.org/2000/svg" xmlns:xlink="http://www.w3.org/1999/xlink">
<g id="graph0" class="graph" transform="scale(1 1) rotate(0) translate(4 222)">
<title>Logger</title>
<!-- Node1 -->
<g id="node1" class="node">
<title>Node1</title>
<g id="a_node1"><a xlink:title=" ">
<polygon fill="#bfbfbf" stroke="black" points="57,-105.5 57,-217.5 125,-217.5 125,-105.5 57,-105.5"/>
<text text-anchor="middle" x="91" y="-205.5" font-family="Helvetica,sans-Serif" font-size="10.00">Logger</text>
<polyline fill="none" stroke="black" points="57,-198.5 125,-198.5 "/>
<text text-anchor="middle" x="91" y="-186.5" font-family="Helvetica,sans-Serif" font-size="10.00"> </text>
<polyline fill="none" stroke="black" points="57,-179.5 125,-179.5 "/>
<text text-anchor="start" x="65" y="-167.5" font-family="Helvetica,sans-Serif" font-size="10.00">+ getLevel()</text>
<text text-anchor="start" x="65" y="-156.5" font-family="Helvetica,sans-Serif" font-size="10.00">+ setLevel()</text>
<text text-anchor="start" x="65" y="-145.5" font-family="Helvetica,sans-Serif" font-size="10.00">+ debug()</text>
<text text-anchor="start" x="65" y="-134.5" font-family="Helvetica,sans-Serif" font-size="10.00">+ info()</text>
<text text-anchor="start" x="65" y="-123.5" font-family="Helvetica,sans-Serif" font-size="10.00">+ warn()</text>
<text text-anchor="start" x="65" y="-112.5" font-family="Helvetica,sans-Serif" font-size="10.00">+ error()</text>
</a>
</g>
</g>
<!-- Node2 -->
<g id="node2" class="node">
<title>Node2</title>
<g id="a_node2"><a xlink:href="../../dc/d5d/class_logger_console.html" target="_top" xlink:title=" ">
<polygon fill="none" stroke="black" points="0,-6 0,-63 82,-63 82,-6 0,-6"/>
<text text-anchor="middle" x="41" y="-51" font-family="Helvetica,sans-Serif" font-size="10.00">LoggerConsole</text>
<polyline fill="none" stroke="black" points="0,-44 82,-44 "/>
<text text-anchor="middle" x="41" y="-32" font-family="Helvetica,sans-Serif" font-size="10.00"> </text>
<polyline fill="none" stroke="black" points="0,-25 82,-25 "/>
<text text-anchor="middle" x="41" y="-13" font-family="Helvetica,sans-Serif" font-size="10.00"> </text>
</a>
</g>
</g>
<!-- Node1&#45;&gt;Node2 -->
<g id="edge1" class="edge">
<title>Node1&#45;&gt;Node2</title>
<path fill="none" stroke="midnightblue" d="M65.2,-96C60.55,-84.37 55.94,-72.84 52,-63.01"/>
<polygon fill="none" stroke="midnightblue" points="61.96,-97.32 68.92,-105.31 68.46,-94.72 61.96,-97.32"/>
</g>
<!-- Node3 -->
<g id="node3" class="node">
<title>Node3</title>
<g id="a_node3"><a xlink:href="../../de/dd8/class_logger_file.html" target="_top" xlink:title=" ">
<polygon fill="none" stroke="black" points="100.5,-0.5 100.5,-68.5 183.5,-68.5 183.5,-0.5 100.5,-0.5"/>
<text text-anchor="middle" x="142" y="-56.5" font-family="Helvetica,sans-Serif" font-size="10.00">LoggerFile</text>
<polyline fill="none" stroke="black" points="100.5,-49.5 183.5,-49.5 "/>
<text text-anchor="middle" x="142" y="-37.5" font-family="Helvetica,sans-Serif" font-size="10.00"> </text>
<polyline fill="none" stroke="black" points="100.5,-30.5 183.5,-30.5 "/>
<text text-anchor="start" x="108.5" y="-18.5" font-family="Helvetica,sans-Serif" font-size="10.00">+ LoggerFile()</text>
<text text-anchor="start" x="108.5" y="-7.5" font-family="Helvetica,sans-Serif" font-size="10.00">+ ~LoggerFile()</text>
</a>
</g>
</g>
<!-- Node1&#45;&gt;Node3 -->
<g id="edge2" class="edge">
<title>Node1&#45;&gt;Node3</title>
<path fill="none" stroke="midnightblue" d="M117.38,-95.85C121.24,-86.38 125.08,-76.97 128.53,-68.51"/>
<polygon fill="none" stroke="midnightblue" points="114.05,-94.73 113.52,-105.31 120.54,-97.37 114.05,-94.73"/>
</g>
</g>
</svg>
