<?xml version="1.0" encoding="UTF-8" standalone="no"?>
<!DOCTYPE svg PUBLIC "-//W3C//DTD SVG 1.1//EN"
 "http://www.w3.org/Graphics/SVG/1.1/DTD/svg11.dtd">
<!-- Generated by graphviz version 2.44.1 (20200629.0846)
 -->
<!-- Title: LoggerConsole Pages: 1 -->
<svg width="90pt" height="215pt"
 viewBox="0.00 0.00 90.00 215.00" xmlns="http://www.w3.org/2000/svg" xmlns:xlink="http://www.w3.org/1999/xlink">
<g id="graph0" class="graph" transform="scale(1 1) rotate(0) translate(4 211)">
<title>LoggerConsole</title>
<!-- Node1 -->
<g id="node1" class="node">
<title>Node1</title>
<g id="a_node1"><a xlink:title=" ">
<polygon fill="#bfbfbf" stroke="black" points="0,-0.5 0,-57.5 82,-57.5 82,-0.5 0,-0.5"/>
<text text-anchor="middle" x="41" y="-45.5" font-family="Helvetica,sans-Serif" font-size="10.00">LoggerConsole</text>
<polyline fill="none" stroke="black" points="0,-38.5 82,-38.5 "/>
<text text-anchor="middle" x="41" y="-26.5" font-family="Helvetica,sans-Serif" font-size="10.00"> </text>
<polyline fill="none" stroke="black" points="0,-19.5 82,-19.5 "/>
<text text-anchor="middle" x="41" y="-7.5" font-family="Helvetica,sans-Serif" font-size="10.00"> </text>
</a>
</g>
</g>
<!-- Node2 -->
<g id="node2" class="node">
<title>Node2</title>
<g id="a_node2"><a xlink:href="../../d3/d42/class_logger.html" target="_top" xlink:title=" ">
<polygon fill="none" stroke="black" points="7,-94.5 7,-206.5 75,-206.5 75,-94.5 7,-94.5"/>
<text text-anchor="middle" x="41" y="-194.5" font-family="Helvetica,sans-Serif" font-size="10.00">Logger</text>
<polyline fill="none" stroke="black" points="7,-187.5 75,-187.5 "/>
<text text-anchor="middle" x="41" y="-175.5" font-family="Helvetica,sans-Serif" font-size="10.00"> </text>
<polyline fill="none" stroke="black" points="7,-168.5 75,-168.5 "/>
<text text-anchor="start" x="15" y="-156.5" font-family="Helvetica,sans-Serif" font-size="10.00">+ getLevel()</text>
<text text-anchor="start" x="15" y="-145.5" font-family="Helvetica,sans-Serif" font-size="10.00">+ setLevel()</text>
<text text-anchor="start" x="15" y="-134.5" font-family="Helvetica,sans-Serif" font-size="10.00">+ debug()</text>
<text text-anchor="start" x="15" y="-123.5" font-family="Helvetica,sans-Serif" font-size="10.00">+ info()</text>
<text text-anchor="start" x="15" y="-112.5" font-family="Helvetica,sans-Serif" font-size="10.00">+ warn()</text>
<text text-anchor="start" x="15" y="-101.5" font-family="Helvetica,sans-Serif" font-size="10.00">+ error()</text>
</a>
</g>
</g>
<!-- Node2&#45;&gt;Node1 -->
<g id="edge1" class="edge">
<title>Node2&#45;&gt;Node1</title>
<path fill="none" stroke="midnightblue" d="M41,-84.15C41,-74.82 41,-65.67 41,-57.63"/>
<polygon fill="none" stroke="midnightblue" points="37.5,-84.3 41,-94.3 44.5,-84.3 37.5,-84.3"/>
</g>
</g>
</svg>
