<?xml version="1.0" encoding="UTF-8" standalone="no"?>
<!DOCTYPE svg PUBLIC "-//W3C//DTD SVG 1.1//EN"
 "http://www.w3.org/Graphics/SVG/1.1/DTD/svg11.dtd">
<!-- Generated by graphviz version 2.44.1 (20200629.0846)
 -->
<!-- Title: BoostServer/src/HttpUtils.hpp Pages: 1 -->
<svg width="269pt" height="196pt"
 viewBox="0.00 0.00 269.00 196.00" xmlns="http://www.w3.org/2000/svg" xmlns:xlink="http://www.w3.org/1999/xlink">
<g id="graph0" class="graph" transform="scale(1 1) rotate(0) translate(4 192)">
<title>BoostServer/src/HttpUtils.hpp</title>
<!-- Node1 -->
<g id="node1" class="node">
<title>Node1</title>
<g id="a_node1"><a xlink:title=" ">
<polygon fill="#bfbfbf" stroke="black" points="44,-168.5 44,-187.5 192,-187.5 192,-168.5 44,-168.5"/>
<text text-anchor="middle" x="118" y="-175.5" font-family="Helvetica,sans-Serif" font-size="10.00">BoostServer/src/HttpUtils.hpp</text>
</a>
</g>
</g>
<!-- Node2 -->
<g id="node2" class="node">
<title>Node2</title>
<g id="a_node2"><a xlink:title=" ">
<polygon fill="none" stroke="#bfbfbf" points="0,-112.5 0,-131.5 108,-131.5 108,-112.5 0,-112.5"/>
<text text-anchor="middle" x="54" y="-119.5" font-family="Helvetica,sans-Serif" font-size="10.00">boost/beast/core.hpp</text>
</a>
</g>
</g>
<!-- Node1&#45;&gt;Node2 -->
<g id="edge1" class="edge">
<title>Node1&#45;&gt;Node2</title>
<path fill="none" stroke="midnightblue" d="M107.72,-168.32C98.16,-160.26 83.72,-148.08 72.22,-138.37"/>
<polygon fill="midnightblue" stroke="midnightblue" points="74.37,-135.61 64.47,-131.83 69.86,-140.96 74.37,-135.61"/>
</g>
<!-- Node3 -->
<g id="node3" class="node">
<title>Node3</title>
<g id="a_node3"><a xlink:href="../../d7/d17/_logger_file_8hpp.html" target="_top" xlink:title=" ">
<polygon fill="none" stroke="black" points="126.5,-112.5 126.5,-131.5 239.5,-131.5 239.5,-112.5 126.5,-112.5"/>
<text text-anchor="middle" x="183" y="-119.5" font-family="Helvetica,sans-Serif" font-size="10.00">Logger/LoggerFile.hpp</text>
</a>
</g>
</g>
<!-- Node1&#45;&gt;Node3 -->
<g id="edge2" class="edge">
<title>Node1&#45;&gt;Node3</title>
<path fill="none" stroke="midnightblue" d="M128.44,-168.32C138.15,-160.26 152.82,-148.08 164.5,-138.37"/>
<polygon fill="midnightblue" stroke="midnightblue" points="166.91,-140.92 172.37,-131.83 162.44,-135.53 166.91,-140.92"/>
</g>
<!-- Node4 -->
<g id="node4" class="node">
<title>Node4</title>
<g id="a_node4"><a xlink:href="../../d3/de3/_logger_8hpp.html" target="_top" xlink:title=" ">
<polygon fill="none" stroke="black" points="91,-56.5 91,-75.5 155,-75.5 155,-56.5 91,-56.5"/>
<text text-anchor="middle" x="123" y="-63.5" font-family="Helvetica,sans-Serif" font-size="10.00">Logger.hpp</text>
</a>
</g>
</g>
<!-- Node3&#45;&gt;Node4 -->
<g id="edge3" class="edge">
<title>Node3&#45;&gt;Node4</title>
<path fill="none" stroke="midnightblue" d="M173.36,-112.32C164.49,-104.34 151.13,-92.31 140.39,-82.65"/>
<polygon fill="midnightblue" stroke="midnightblue" points="142.59,-79.92 132.82,-75.83 137.91,-85.13 142.59,-79.92"/>
</g>
<!-- Node5 -->
<g id="node5" class="node">
<title>Node5</title>
<g id="a_node5"><a xlink:title=" ">
<polygon fill="none" stroke="#bfbfbf" points="132.5,-0.5 132.5,-19.5 173.5,-19.5 173.5,-0.5 132.5,-0.5"/>
<text text-anchor="middle" x="153" y="-7.5" font-family="Helvetica,sans-Serif" font-size="10.00">string</text>
</a>
</g>
</g>
<!-- Node3&#45;&gt;Node5 -->
<g id="edge5" class="edge">
<title>Node3&#45;&gt;Node5</title>
<path fill="none" stroke="midnightblue" d="M180.65,-112.37C175.78,-94.54 164.54,-53.3 157.98,-29.27"/>
<polygon fill="midnightblue" stroke="midnightblue" points="161.35,-28.32 155.34,-19.59 154.6,-30.16 161.35,-28.32"/>
</g>
<!-- Node6 -->
<g id="node6" class="node">
<title>Node6</title>
<g id="a_node6"><a xlink:title=" ">
<polygon fill="none" stroke="#bfbfbf" points="211,-56.5 211,-75.5 261,-75.5 261,-56.5 211,-56.5"/>
<text text-anchor="middle" x="236" y="-63.5" font-family="Helvetica,sans-Serif" font-size="10.00">fstream</text>
</a>
</g>
</g>
<!-- Node3&#45;&gt;Node6 -->
<g id="edge6" class="edge">
<title>Node3&#45;&gt;Node6</title>
<path fill="none" stroke="midnightblue" d="M191.75,-112.08C199.47,-104.22 210.9,-92.57 220.22,-83.08"/>
<polygon fill="midnightblue" stroke="midnightblue" points="222.9,-85.34 227.41,-75.75 217.91,-80.44 222.9,-85.34"/>
</g>
<!-- Node4&#45;&gt;Node5 -->
<g id="edge4" class="edge">
<title>Node4&#45;&gt;Node5</title>
<path fill="none" stroke="midnightblue" d="M127.95,-56.08C132.1,-48.61 138.15,-37.72 143.27,-28.52"/>
<polygon fill="midnightblue" stroke="midnightblue" points="146.34,-30.19 148.14,-19.75 140.22,-26.79 146.34,-30.19"/>
</g>
</g>
</svg>
