<?xml version="1.0" encoding="UTF-8" standalone="no"?>
<!DOCTYPE svg PUBLIC "-//W3C//DTD SVG 1.1//EN"
 "http://www.w3.org/Graphics/SVG/1.1/DTD/svg11.dtd">
<!-- Generated by graphviz version 2.44.1 (20200629.0846)
 -->
<!-- Title: BoostServer/src/HttpSession.hpp Pages: 1 -->
<svg width="774pt" height="252pt"
 viewBox="0.00 0.00 774.36 252.00" xmlns="http://www.w3.org/2000/svg" xmlns:xlink="http://www.w3.org/1999/xlink">
<g id="graph0" class="graph" transform="scale(1 1) rotate(0) translate(4 248)">
<title>BoostServer/src/HttpSession.hpp</title>
<!-- Node1 -->
<g id="node1" class="node">
<title>Node1</title>
<g id="a_node1"><a xlink:title=" ">
<polygon fill="#bfbfbf" stroke="black" points="255.86,-224.5 255.86,-243.5 418.86,-243.5 418.86,-224.5 255.86,-224.5"/>
<text text-anchor="middle" x="337.36" y="-231.5" font-family="Helvetica,sans-Serif" font-size="10.00">BoostServer/src/HttpSession.hpp</text>
</a>
</g>
</g>
<!-- Node2 -->
<g id="node2" class="node">
<title>Node2</title>
<g id="a_node2"><a xlink:title=" ">
<polygon fill="none" stroke="#bfbfbf" points="218.36,-112.5 218.36,-131.5 326.36,-131.5 326.36,-112.5 218.36,-112.5"/>
<text text-anchor="middle" x="272.36" y="-119.5" font-family="Helvetica,sans-Serif" font-size="10.00">boost/beast/core.hpp</text>
</a>
</g>
</g>
<!-- Node1&#45;&gt;Node2 -->
<g id="edge1" class="edge">
<title>Node1&#45;&gt;Node2</title>
<path fill="none" stroke="midnightblue" d="M255.83,-233.76C167.96,-232.63 36.37,-224.62 4.36,-188 -1.49,-181.31 -1.38,-174.79 4.36,-168 29.96,-137.75 137.36,-127.82 208.19,-124.57"/>
<polygon fill="midnightblue" stroke="midnightblue" points="208.52,-128.06 218.36,-124.14 208.22,-121.07 208.52,-128.06"/>
</g>
<!-- Node3 -->
<g id="node3" class="node">
<title>Node3</title>
<g id="a_node3"><a xlink:title=" ">
<polygon fill="none" stroke="#bfbfbf" points="13.36,-168.5 13.36,-187.5 119.36,-187.5 119.36,-168.5 13.36,-168.5"/>
<text text-anchor="middle" x="66.36" y="-175.5" font-family="Helvetica,sans-Serif" font-size="10.00">boost/beast/http.hpp</text>
</a>
</g>
</g>
<!-- Node1&#45;&gt;Node3 -->
<g id="edge2" class="edge">
<title>Node1&#45;&gt;Node3</title>
<path fill="none" stroke="midnightblue" d="M294.42,-224.44C246.85,-214.96 170.12,-199.67 118.97,-189.48"/>
<polygon fill="midnightblue" stroke="midnightblue" points="119.59,-186.04 109.1,-187.52 118.22,-192.9 119.59,-186.04"/>
</g>
<!-- Node4 -->
<g id="node4" class="node">
<title>Node4</title>
<g id="a_node4"><a xlink:title=" ">
<polygon fill="none" stroke="#bfbfbf" points="137.86,-168.5 137.86,-187.5 258.86,-187.5 258.86,-168.5 137.86,-168.5"/>
<text text-anchor="middle" x="198.36" y="-175.5" font-family="Helvetica,sans-Serif" font-size="10.00">boost/beast/version.hpp</text>
</a>
</g>
</g>
<!-- Node1&#45;&gt;Node4 -->
<g id="edge3" class="edge">
<title>Node1&#45;&gt;Node4</title>
<path fill="none" stroke="midnightblue" d="M315.34,-224.44C292.26,-215.48 255.8,-201.31 229.72,-191.18"/>
<polygon fill="midnightblue" stroke="midnightblue" points="230.87,-187.88 220.28,-187.52 228.34,-194.4 230.87,-187.88"/>
</g>
<!-- Node5 -->
<g id="node5" class="node">
<title>Node5</title>
<g id="a_node5"><a xlink:title=" ">
<polygon fill="none" stroke="#bfbfbf" points="277.36,-168.5 277.36,-187.5 397.36,-187.5 397.36,-168.5 277.36,-168.5"/>
<text text-anchor="middle" x="337.36" y="-175.5" font-family="Helvetica,sans-Serif" font-size="10.00">boost/asio/dispatch.hpp</text>
</a>
</g>
</g>
<!-- Node1&#45;&gt;Node5 -->
<g id="edge4" class="edge">
<title>Node1&#45;&gt;Node5</title>
<path fill="none" stroke="midnightblue" d="M337.36,-224.08C337.36,-217.01 337.36,-206.86 337.36,-197.99"/>
<polygon fill="midnightblue" stroke="midnightblue" points="340.86,-197.75 337.36,-187.75 333.86,-197.75 340.86,-197.75"/>
</g>
<!-- Node6 -->
<g id="node6" class="node">
<title>Node6</title>
<g id="a_node6"><a xlink:title=" ">
<polygon fill="none" stroke="#bfbfbf" points="415.36,-168.5 415.36,-187.5 525.36,-187.5 525.36,-168.5 415.36,-168.5"/>
<text text-anchor="middle" x="470.36" y="-175.5" font-family="Helvetica,sans-Serif" font-size="10.00">boost/asio/strand.hpp</text>
</a>
</g>
</g>
<!-- Node1&#45;&gt;Node6 -->
<g id="edge5" class="edge">
<title>Node1&#45;&gt;Node6</title>
<path fill="none" stroke="midnightblue" d="M358.43,-224.44C380.42,-215.52 415.09,-201.44 440.02,-191.32"/>
<polygon fill="midnightblue" stroke="midnightblue" points="441.44,-194.52 449.38,-187.52 438.8,-188.04 441.44,-194.52"/>
</g>
<!-- Node7 -->
<g id="node7" class="node">
<title>Node7</title>
<g id="a_node7"><a xlink:title=" ">
<polygon fill="none" stroke="#bfbfbf" points="543.86,-168.5 543.86,-187.5 632.86,-187.5 632.86,-168.5 543.86,-168.5"/>
<text text-anchor="middle" x="588.36" y="-175.5" font-family="Helvetica,sans-Serif" font-size="10.00">boost/config.hpp</text>
</a>
</g>
</g>
<!-- Node1&#45;&gt;Node7 -->
<g id="edge6" class="edge">
<title>Node1&#45;&gt;Node7</title>
<path fill="none" stroke="midnightblue" d="M377.13,-224.44C420.92,-215.02 491.37,-199.87 538.74,-189.68"/>
<polygon fill="midnightblue" stroke="midnightblue" points="539.73,-193.04 548.77,-187.52 538.26,-186.2 539.73,-193.04"/>
</g>
<!-- Node8 -->
<g id="node8" class="node">
<title>Node8</title>
<g id="a_node8"><a xlink:href="../../d4/d90/_http_utils_8hpp.html" target="_top" xlink:title=" ">
<polygon fill="none" stroke="black" points="651.36,-168.5 651.36,-187.5 725.36,-187.5 725.36,-168.5 651.36,-168.5"/>
<text text-anchor="middle" x="688.36" y="-175.5" font-family="Helvetica,sans-Serif" font-size="10.00">HttpUtils.hpp</text>
</a>
</g>
</g>
<!-- Node1&#45;&gt;Node8 -->
<g id="edge7" class="edge">
<title>Node1&#45;&gt;Node8</title>
<path fill="none" stroke="midnightblue" d="M400.36,-224.47C459.7,-216.25 551.34,-203.09 641.1,-187.98"/>
<polygon fill="midnightblue" stroke="midnightblue" points="641.91,-191.39 651.19,-186.27 640.74,-184.49 641.91,-191.39"/>
</g>
<!-- Node8&#45;&gt;Node2 -->
<g id="edge8" class="edge">
<title>Node8&#45;&gt;Node2</title>
<path fill="none" stroke="midnightblue" d="M651.2,-169.64C647.88,-169.06 644.56,-168.5 641.36,-168 534.94,-151.34 410.44,-137.28 336.67,-129.51"/>
<polygon fill="midnightblue" stroke="midnightblue" points="336.92,-126.01 326.6,-128.45 336.19,-132.97 336.92,-126.01"/>
</g>
<!-- Node9 -->
<g id="node9" class="node">
<title>Node9</title>
<g id="a_node9"><a xlink:href="../../d7/d17/_logger_file_8hpp.html" target="_top" xlink:title=" ">
<polygon fill="none" stroke="black" points="631.86,-112.5 631.86,-131.5 744.86,-131.5 744.86,-112.5 631.86,-112.5"/>
<text text-anchor="middle" x="688.36" y="-119.5" font-family="Helvetica,sans-Serif" font-size="10.00">Logger/LoggerFile.hpp</text>
</a>
</g>
</g>
<!-- Node8&#45;&gt;Node9 -->
<g id="edge9" class="edge">
<title>Node8&#45;&gt;Node9</title>
<path fill="none" stroke="midnightblue" d="M688.36,-168.08C688.36,-161.01 688.36,-150.86 688.36,-141.99"/>
<polygon fill="midnightblue" stroke="midnightblue" points="691.86,-141.75 688.36,-131.75 684.86,-141.75 691.86,-141.75"/>
</g>
<!-- Node10 -->
<g id="node10" class="node">
<title>Node10</title>
<g id="a_node10"><a xlink:href="../../d3/de3/_logger_8hpp.html" target="_top" xlink:title=" ">
<polygon fill="none" stroke="black" points="596.36,-56.5 596.36,-75.5 660.36,-75.5 660.36,-56.5 596.36,-56.5"/>
<text text-anchor="middle" x="628.36" y="-63.5" font-family="Helvetica,sans-Serif" font-size="10.00">Logger.hpp</text>
</a>
</g>
</g>
<!-- Node9&#45;&gt;Node10 -->
<g id="edge10" class="edge">
<title>Node9&#45;&gt;Node10</title>
<path fill="none" stroke="midnightblue" d="M678.72,-112.32C669.85,-104.34 656.49,-92.31 645.75,-82.65"/>
<polygon fill="midnightblue" stroke="midnightblue" points="647.95,-79.92 638.18,-75.83 643.27,-85.13 647.95,-79.92"/>
</g>
<!-- Node11 -->
<g id="node11" class="node">
<title>Node11</title>
<g id="a_node11"><a xlink:title=" ">
<polygon fill="none" stroke="#bfbfbf" points="637.86,-0.5 637.86,-19.5 678.86,-19.5 678.86,-0.5 637.86,-0.5"/>
<text text-anchor="middle" x="658.36" y="-7.5" font-family="Helvetica,sans-Serif" font-size="10.00">string</text>
</a>
</g>
</g>
<!-- Node9&#45;&gt;Node11 -->
<g id="edge12" class="edge">
<title>Node9&#45;&gt;Node11</title>
<path fill="none" stroke="midnightblue" d="M686.01,-112.37C681.14,-94.54 669.9,-53.3 663.34,-29.27"/>
<polygon fill="midnightblue" stroke="midnightblue" points="666.71,-28.32 660.7,-19.59 659.96,-30.16 666.71,-28.32"/>
</g>
<!-- Node12 -->
<g id="node12" class="node">
<title>Node12</title>
<g id="a_node12"><a xlink:title=" ">
<polygon fill="none" stroke="#bfbfbf" points="716.36,-56.5 716.36,-75.5 766.36,-75.5 766.36,-56.5 716.36,-56.5"/>
<text text-anchor="middle" x="741.36" y="-63.5" font-family="Helvetica,sans-Serif" font-size="10.00">fstream</text>
</a>
</g>
</g>
<!-- Node9&#45;&gt;Node12 -->
<g id="edge13" class="edge">
<title>Node9&#45;&gt;Node12</title>
<path fill="none" stroke="midnightblue" d="M697.11,-112.08C704.83,-104.22 716.26,-92.57 725.58,-83.08"/>
<polygon fill="midnightblue" stroke="midnightblue" points="728.26,-85.34 732.77,-75.75 723.27,-80.44 728.26,-85.34"/>
</g>
<!-- Node10&#45;&gt;Node11 -->
<g id="edge11" class="edge">
<title>Node10&#45;&gt;Node11</title>
<path fill="none" stroke="midnightblue" d="M633.31,-56.08C637.46,-48.61 643.51,-37.72 648.63,-28.52"/>
<polygon fill="midnightblue" stroke="midnightblue" points="651.7,-30.19 653.5,-19.75 645.58,-26.79 651.7,-30.19"/>
</g>
</g>
</svg>
