<?xml version="1.0" encoding="UTF-8" standalone="no"?>
<!DOCTYPE svg PUBLIC "-//W3C//DTD SVG 1.1//EN"
 "http://www.w3.org/Graphics/SVG/1.1/DTD/svg11.dtd">
<!-- Generated by graphviz version 2.44.1 (20200629.0846)
 -->
<!-- Title: BoostServer/src/HttpSession.hpp Pages: 1 -->
<svg width="1015pt" height="263pt"
 viewBox="0.00 0.00 1014.92 263.00" xmlns="http://www.w3.org/2000/svg" xmlns:xlink="http://www.w3.org/1999/xlink">
<g id="graph0" class="graph" transform="scale(1 1) rotate(0) translate(4 259)">
<title>BoostServer/src/HttpSession.hpp</title>
<!-- Node1 -->
<g id="node1" class="node">
<title>Node1</title>
<g id="a_node1"><a xlink:title=" ">
<polygon fill="#bfbfbf" stroke="black" points="391.42,-235.5 391.42,-254.5 554.42,-254.5 554.42,-235.5 391.42,-235.5"/>
<text text-anchor="middle" x="472.92" y="-242.5" font-family="Helvetica,sans-Serif" font-size="10.00">BoostServer/src/HttpSession.hpp</text>
</a>
</g>
</g>
<!-- Node2 -->
<g id="node2" class="node">
<title>Node2</title>
<g id="a_node2"><a xlink:title=" ">
<polygon fill="none" stroke="#bfbfbf" points="339.92,-112.5 339.92,-131.5 447.92,-131.5 447.92,-112.5 339.92,-112.5"/>
<text text-anchor="middle" x="393.92" y="-119.5" font-family="Helvetica,sans-Serif" font-size="10.00">boost/beast/core.hpp</text>
</a>
</g>
</g>
<!-- Node1&#45;&gt;Node2 -->
<g id="edge1" class="edge">
<title>Node1&#45;&gt;Node2</title>
<path fill="none" stroke="midnightblue" d="M391.35,-241.97C264.61,-237.95 32.2,-226.85 6.92,-199 -2.35,-188.8 -2.25,-178.29 6.92,-168 27.97,-144.35 225.31,-131.22 329.75,-125.88"/>
<polygon fill="midnightblue" stroke="midnightblue" points="330.06,-129.36 339.87,-125.37 329.71,-122.37 330.06,-129.36"/>
</g>
<!-- Node3 -->
<g id="node3" class="node">
<title>Node3</title>
<g id="a_node3"><a xlink:title=" ">
<polygon fill="none" stroke="#bfbfbf" points="15.92,-174 15.92,-193 121.92,-193 121.92,-174 15.92,-174"/>
<text text-anchor="middle" x="68.92" y="-181" font-family="Helvetica,sans-Serif" font-size="10.00">boost/beast/http.hpp</text>
</a>
</g>
</g>
<!-- Node1&#45;&gt;Node3 -->
<g id="edge2" class="edge">
<title>Node1&#45;&gt;Node3</title>
<path fill="none" stroke="midnightblue" d="M391.37,-235.57C321.86,-227.83 219.44,-215.13 130.92,-199 124.99,-197.92 118.79,-196.64 112.68,-195.3"/>
<polygon fill="midnightblue" stroke="midnightblue" points="113.1,-191.81 102.58,-193.01 111.55,-198.64 113.1,-191.81"/>
</g>
<!-- Node4 -->
<g id="node4" class="node">
<title>Node4</title>
<g id="a_node4"><a xlink:title=" ">
<polygon fill="none" stroke="#bfbfbf" points="140.42,-174 140.42,-193 261.42,-193 261.42,-174 140.42,-174"/>
<text text-anchor="middle" x="200.92" y="-181" font-family="Helvetica,sans-Serif" font-size="10.00">boost/beast/version.hpp</text>
</a>
</g>
</g>
<!-- Node1&#45;&gt;Node4 -->
<g id="edge3" class="edge">
<title>Node1&#45;&gt;Node4</title>
<path fill="none" stroke="midnightblue" d="M433.94,-235.48C385.37,-224.85 302.33,-206.68 249.61,-195.15"/>
<polygon fill="midnightblue" stroke="midnightblue" points="250.33,-191.73 239.81,-193.01 248.84,-198.57 250.33,-191.73"/>
</g>
<!-- Node5 -->
<g id="node5" class="node">
<title>Node5</title>
<g id="a_node5"><a xlink:title=" ">
<polygon fill="none" stroke="#bfbfbf" points="279.92,-174 279.92,-193 399.92,-193 399.92,-174 279.92,-174"/>
<text text-anchor="middle" x="339.92" y="-181" font-family="Helvetica,sans-Serif" font-size="10.00">boost/asio/dispatch.hpp</text>
</a>
</g>
</g>
<!-- Node1&#45;&gt;Node5 -->
<g id="edge4" class="edge">
<title>Node1&#45;&gt;Node5</title>
<path fill="none" stroke="midnightblue" d="M453.86,-235.48C431.44,-225.45 394.01,-208.7 368.2,-197.15"/>
<polygon fill="midnightblue" stroke="midnightblue" points="369.49,-193.9 358.94,-193.01 366.63,-200.29 369.49,-193.9"/>
</g>
<!-- Node6 -->
<g id="node6" class="node">
<title>Node6</title>
<g id="a_node6"><a xlink:title=" ">
<polygon fill="none" stroke="#bfbfbf" points="417.92,-174 417.92,-193 527.92,-193 527.92,-174 417.92,-174"/>
<text text-anchor="middle" x="472.92" y="-181" font-family="Helvetica,sans-Serif" font-size="10.00">boost/asio/strand.hpp</text>
</a>
</g>
</g>
<!-- Node1&#45;&gt;Node6 -->
<g id="edge5" class="edge">
<title>Node1&#45;&gt;Node6</title>
<path fill="none" stroke="midnightblue" d="M472.92,-235.48C472.92,-227.08 472.92,-213.98 472.92,-203.16"/>
<polygon fill="midnightblue" stroke="midnightblue" points="476.42,-203.01 472.92,-193.01 469.42,-203.01 476.42,-203.01"/>
</g>
<!-- Node7 -->
<g id="node7" class="node">
<title>Node7</title>
<g id="a_node7"><a xlink:title=" ">
<polygon fill="none" stroke="#bfbfbf" points="546.42,-174 546.42,-193 635.42,-193 635.42,-174 546.42,-174"/>
<text text-anchor="middle" x="590.92" y="-181" font-family="Helvetica,sans-Serif" font-size="10.00">boost/config.hpp</text>
</a>
</g>
</g>
<!-- Node1&#45;&gt;Node7 -->
<g id="edge6" class="edge">
<title>Node1&#45;&gt;Node7</title>
<path fill="none" stroke="midnightblue" d="M489.82,-235.48C509.45,-225.58 542.05,-209.14 564.91,-197.62"/>
<polygon fill="midnightblue" stroke="midnightblue" points="566.69,-200.64 574.04,-193.01 563.54,-194.39 566.69,-200.64"/>
</g>
<!-- Node8 -->
<g id="node8" class="node">
<title>Node8</title>
<g id="a_node8"><a xlink:title=" ">
<polygon fill="none" stroke="#bfbfbf" points="653.42,-168.5 653.42,-198.5 754.42,-198.5 754.42,-168.5 653.42,-168.5"/>
<text text-anchor="start" x="661.42" y="-186.5" font-family="Helvetica,sans-Serif" font-size="10.00">boost/property_tree</text>
<text text-anchor="middle" x="703.92" y="-175.5" font-family="Helvetica,sans-Serif" font-size="10.00">/ptree.hpp</text>
</a>
</g>
</g>
<!-- Node1&#45;&gt;Node8 -->
<g id="edge7" class="edge">
<title>Node1&#45;&gt;Node8</title>
<path fill="none" stroke="midnightblue" d="M506.01,-235.48C541.73,-226.27 599.4,-211.42 643.29,-200.12"/>
<polygon fill="midnightblue" stroke="midnightblue" points="644.19,-203.5 653,-197.62 642.44,-196.72 644.19,-203.5"/>
</g>
<!-- Node9 -->
<g id="node9" class="node">
<title>Node9</title>
<g id="a_node9"><a xlink:title=" ">
<polygon fill="none" stroke="#bfbfbf" points="772.42,-168.5 772.42,-198.5 873.42,-198.5 873.42,-168.5 772.42,-168.5"/>
<text text-anchor="start" x="780.42" y="-186.5" font-family="Helvetica,sans-Serif" font-size="10.00">boost/property_tree</text>
<text text-anchor="middle" x="822.92" y="-175.5" font-family="Helvetica,sans-Serif" font-size="10.00">/json_parser.hpp</text>
</a>
</g>
</g>
<!-- Node1&#45;&gt;Node9 -->
<g id="edge8" class="edge">
<title>Node1&#45;&gt;Node9</title>
<path fill="none" stroke="midnightblue" d="M537.97,-235.48C594.68,-227.7 679.33,-215.22 762.39,-199"/>
<polygon fill="midnightblue" stroke="midnightblue" points="763.11,-202.43 772.24,-197.06 761.75,-195.56 763.11,-202.43"/>
</g>
<!-- Node10 -->
<g id="node10" class="node">
<title>Node10</title>
<g id="a_node10"><a xlink:href="../../d4/d90/_http_utils_8hpp.html" target="_top" xlink:title=" ">
<polygon fill="none" stroke="black" points="891.92,-174 891.92,-193 965.92,-193 965.92,-174 891.92,-174"/>
<text text-anchor="middle" x="928.92" y="-181" font-family="Helvetica,sans-Serif" font-size="10.00">HttpUtils.hpp</text>
</a>
</g>
</g>
<!-- Node1&#45;&gt;Node10 -->
<g id="edge9" class="edge">
<title>Node1&#45;&gt;Node10</title>
<path fill="none" stroke="midnightblue" d="M554.72,-239.58C637.8,-234.02 769.82,-222.24 881.92,-199 886.05,-198.14 890.35,-197.07 894.59,-195.91"/>
<polygon fill="midnightblue" stroke="midnightblue" points="895.66,-199.24 904.27,-193.07 893.68,-192.53 895.66,-199.24"/>
</g>
<!-- Node10&#45;&gt;Node2 -->
<g id="edge10" class="edge">
<title>Node10&#45;&gt;Node2</title>
<path fill="none" stroke="midnightblue" d="M904.28,-173.85C897.14,-171.63 889.29,-169.46 881.92,-168 732.09,-138.31 552.42,-128.13 458.44,-124.7"/>
<polygon fill="midnightblue" stroke="midnightblue" points="458.35,-121.2 448.24,-124.34 458.11,-128.19 458.35,-121.2"/>
</g>
<!-- Node11 -->
<g id="node11" class="node">
<title>Node11</title>
<g id="a_node11"><a xlink:href="../../d7/d17/_logger_file_8hpp.html" target="_top" xlink:title=" ">
<polygon fill="none" stroke="black" points="872.42,-112.5 872.42,-131.5 985.42,-131.5 985.42,-112.5 872.42,-112.5"/>
<text text-anchor="middle" x="928.92" y="-119.5" font-family="Helvetica,sans-Serif" font-size="10.00">Logger/LoggerFile.hpp</text>
</a>
</g>
</g>
<!-- Node10&#45;&gt;Node11 -->
<g id="edge11" class="edge">
<title>Node10&#45;&gt;Node11</title>
<path fill="none" stroke="midnightblue" d="M928.92,-173.98C928.92,-165.58 928.92,-152.48 928.92,-141.66"/>
<polygon fill="midnightblue" stroke="midnightblue" points="932.42,-141.51 928.92,-131.51 925.42,-141.51 932.42,-141.51"/>
</g>
<!-- Node12 -->
<g id="node12" class="node">
<title>Node12</title>
<g id="a_node12"><a xlink:href="../../d3/de3/_logger_8hpp.html" target="_top" xlink:title=" ">
<polygon fill="none" stroke="black" points="836.92,-56.5 836.92,-75.5 900.92,-75.5 900.92,-56.5 836.92,-56.5"/>
<text text-anchor="middle" x="868.92" y="-63.5" font-family="Helvetica,sans-Serif" font-size="10.00">Logger.hpp</text>
</a>
</g>
</g>
<!-- Node11&#45;&gt;Node12 -->
<g id="edge12" class="edge">
<title>Node11&#45;&gt;Node12</title>
<path fill="none" stroke="midnightblue" d="M919.28,-112.32C910.41,-104.34 897.04,-92.31 886.31,-82.65"/>
<polygon fill="midnightblue" stroke="midnightblue" points="888.51,-79.92 878.73,-75.83 883.82,-85.13 888.51,-79.92"/>
</g>
<!-- Node13 -->
<g id="node13" class="node">
<title>Node13</title>
<g id="a_node13"><a xlink:title=" ">
<polygon fill="none" stroke="#bfbfbf" points="878.42,-0.5 878.42,-19.5 919.42,-19.5 919.42,-0.5 878.42,-0.5"/>
<text text-anchor="middle" x="898.92" y="-7.5" font-family="Helvetica,sans-Serif" font-size="10.00">string</text>
</a>
</g>
</g>
<!-- Node11&#45;&gt;Node13 -->
<g id="edge14" class="edge">
<title>Node11&#45;&gt;Node13</title>
<path fill="none" stroke="midnightblue" d="M926.56,-112.37C921.7,-94.54 910.45,-53.3 903.9,-29.27"/>
<polygon fill="midnightblue" stroke="midnightblue" points="907.27,-28.32 901.26,-19.59 900.51,-30.16 907.27,-28.32"/>
</g>
<!-- Node14 -->
<g id="node14" class="node">
<title>Node14</title>
<g id="a_node14"><a xlink:title=" ">
<polygon fill="none" stroke="#bfbfbf" points="956.92,-56.5 956.92,-75.5 1006.92,-75.5 1006.92,-56.5 956.92,-56.5"/>
<text text-anchor="middle" x="981.92" y="-63.5" font-family="Helvetica,sans-Serif" font-size="10.00">fstream</text>
</a>
</g>
</g>
<!-- Node11&#45;&gt;Node14 -->
<g id="edge15" class="edge">
<title>Node11&#45;&gt;Node14</title>
<path fill="none" stroke="midnightblue" d="M937.67,-112.08C945.39,-104.22 956.82,-92.57 966.13,-83.08"/>
<polygon fill="midnightblue" stroke="midnightblue" points="968.82,-85.34 973.33,-75.75 963.82,-80.44 968.82,-85.34"/>
</g>
<!-- Node12&#45;&gt;Node13 -->
<g id="edge13" class="edge">
<title>Node12&#45;&gt;Node13</title>
<path fill="none" stroke="midnightblue" d="M873.87,-56.08C878.02,-48.61 884.07,-37.72 889.18,-28.52"/>
<polygon fill="midnightblue" stroke="midnightblue" points="892.26,-30.19 894.05,-19.75 886.14,-26.79 892.26,-30.19"/>
</g>
</g>
</svg>
