<?xml version="1.0" encoding="UTF-8" standalone="no"?>
<!DOCTYPE svg PUBLIC "-//W3C//DTD SVG 1.1//EN"
 "http://www.w3.org/Graphics/SVG/1.1/DTD/svg11.dtd">
<!-- Generated by graphviz version 2.44.1 (20200629.0846)
 -->
<!-- Title: BoostServer/src/HttpServer.cpp Pages: 1 -->
<svg width="996pt" height="431pt"
 viewBox="0.00 0.00 995.50 431.00" xmlns="http://www.w3.org/2000/svg" xmlns:xlink="http://www.w3.org/1999/xlink">
<g id="graph0" class="graph" transform="scale(1 1) rotate(0) translate(4 427)">
<title>BoostServer/src/HttpServer.cpp</title>
<!-- Node1 -->
<g id="node1" class="node">
<title>Node1</title>
<g id="a_node1"><a xlink:title=" ">
<polygon fill="#bfbfbf" stroke="black" points="110.5,-403.5 110.5,-422.5 265.5,-422.5 265.5,-403.5 110.5,-403.5"/>
<text text-anchor="middle" x="188" y="-410.5" font-family="Helvetica,sans-Serif" font-size="10.00">BoostServer/src/HttpServer.cpp</text>
</a>
</g>
</g>
<!-- Node2 -->
<g id="node2" class="node">
<title>Node2</title>
<g id="a_node2"><a xlink:href="../../dc/da1/_http_server_8hpp.html" target="_top" xlink:title=" ">
<polygon fill="none" stroke="black" points="147,-347.5 147,-366.5 229,-366.5 229,-347.5 147,-347.5"/>
<text text-anchor="middle" x="188" y="-354.5" font-family="Helvetica,sans-Serif" font-size="10.00">HttpServer.hpp</text>
</a>
</g>
</g>
<!-- Node1&#45;&gt;Node2 -->
<g id="edge1" class="edge">
<title>Node1&#45;&gt;Node2</title>
<path fill="none" stroke="midnightblue" d="M188,-403.08C188,-396.01 188,-385.86 188,-376.99"/>
<polygon fill="midnightblue" stroke="midnightblue" points="191.5,-376.75 188,-366.75 184.5,-376.75 191.5,-376.75"/>
</g>
<!-- Node3 -->
<g id="node3" class="node">
<title>Node3</title>
<g id="a_node3"><a xlink:title=" ">
<polygon fill="none" stroke="#bfbfbf" points="124,-291.5 124,-310.5 168,-310.5 168,-291.5 124,-291.5"/>
<text text-anchor="middle" x="146" y="-298.5" font-family="Helvetica,sans-Serif" font-size="10.00">thread</text>
</a>
</g>
</g>
<!-- Node2&#45;&gt;Node3 -->
<g id="edge2" class="edge">
<title>Node2&#45;&gt;Node3</title>
<path fill="none" stroke="midnightblue" d="M181.06,-347.08C175.07,-339.38 166.25,-328.03 158.95,-318.65"/>
<polygon fill="midnightblue" stroke="midnightblue" points="161.71,-316.5 152.81,-310.75 156.18,-320.79 161.71,-316.5"/>
</g>
<!-- Node4 -->
<g id="node4" class="node">
<title>Node4</title>
<g id="a_node4"><a xlink:href="../../dd/d4c/_http_listener_8hpp.html" target="_top" xlink:title=" ">
<polygon fill="none" stroke="black" points="186,-291.5 186,-310.5 274,-310.5 274,-291.5 186,-291.5"/>
<text text-anchor="middle" x="230" y="-298.5" font-family="Helvetica,sans-Serif" font-size="10.00">HttpListener.hpp</text>
</a>
</g>
</g>
<!-- Node2&#45;&gt;Node4 -->
<g id="edge3" class="edge">
<title>Node2&#45;&gt;Node4</title>
<path fill="none" stroke="midnightblue" d="M194.94,-347.08C200.93,-339.38 209.75,-328.03 217.05,-318.65"/>
<polygon fill="midnightblue" stroke="midnightblue" points="219.82,-320.79 223.19,-310.75 214.29,-316.5 219.82,-320.79"/>
</g>
<!-- Node5 -->
<g id="node5" class="node">
<title>Node5</title>
<g id="a_node5"><a xlink:title=" ">
<polygon fill="none" stroke="#bfbfbf" points="0,-174 0,-193 120,-193 120,-174 0,-174"/>
<text text-anchor="middle" x="60" y="-181" font-family="Helvetica,sans-Serif" font-size="10.00">boost/asio/dispatch.hpp</text>
</a>
</g>
</g>
<!-- Node4&#45;&gt;Node5 -->
<g id="edge4" class="edge">
<title>Node4&#45;&gt;Node5</title>
<path fill="none" stroke="midnightblue" d="M217.22,-291.32C188.18,-271.59 116.96,-223.2 81.2,-198.91"/>
<polygon fill="midnightblue" stroke="midnightblue" points="83.16,-196.01 72.93,-193.28 79.23,-201.8 83.16,-196.01"/>
</g>
<!-- Node6 -->
<g id="node6" class="node">
<title>Node6</title>
<g id="a_node6"><a xlink:title=" ">
<polygon fill="none" stroke="#bfbfbf" points="138,-174 138,-193 248,-193 248,-174 138,-174"/>
<text text-anchor="middle" x="193" y="-181" font-family="Helvetica,sans-Serif" font-size="10.00">boost/asio/strand.hpp</text>
</a>
</g>
</g>
<!-- Node4&#45;&gt;Node6 -->
<g id="edge5" class="edge">
<title>Node4&#45;&gt;Node6</title>
<path fill="none" stroke="midnightblue" d="M227.22,-291.32C221.25,-272.67 207.08,-228.44 198.97,-203.13"/>
<polygon fill="midnightblue" stroke="midnightblue" points="202.2,-201.74 195.81,-193.28 195.53,-203.87 202.2,-201.74"/>
</g>
<!-- Node7 -->
<g id="node7" class="node">
<title>Node7</title>
<g id="a_node7"><a xlink:href="../../d4/d90/_http_utils_8hpp.html" target="_top" xlink:title=" ">
<polygon fill="none" stroke="black" points="266,-174 266,-193 340,-193 340,-174 266,-174"/>
<text text-anchor="middle" x="303" y="-181" font-family="Helvetica,sans-Serif" font-size="10.00">HttpUtils.hpp</text>
</a>
</g>
</g>
<!-- Node4&#45;&gt;Node7 -->
<g id="edge6" class="edge">
<title>Node4&#45;&gt;Node7</title>
<path fill="none" stroke="midnightblue" d="M235.49,-291.32C247.48,-272.34 276.23,-226.85 292.07,-201.79"/>
<polygon fill="midnightblue" stroke="midnightblue" points="295.07,-203.61 297.45,-193.28 289.15,-199.87 295.07,-203.61"/>
</g>
<!-- Node13 -->
<g id="node13" class="node">
<title>Node13</title>
<g id="a_node13"><a xlink:href="../../d7/dc1/_http_session_8hpp.html" target="_top" xlink:title=" ">
<polygon fill="none" stroke="black" points="414.5,-235.5 414.5,-254.5 503.5,-254.5 503.5,-235.5 414.5,-235.5"/>
<text text-anchor="middle" x="459" y="-242.5" font-family="Helvetica,sans-Serif" font-size="10.00">HttpSession.hpp</text>
</a>
</g>
</g>
<!-- Node4&#45;&gt;Node13 -->
<g id="edge13" class="edge">
<title>Node4&#45;&gt;Node13</title>
<path fill="none" stroke="midnightblue" d="M266.29,-291.44C305.98,-282.08 369.71,-267.06 412.91,-256.87"/>
<polygon fill="midnightblue" stroke="midnightblue" points="413.95,-260.22 422.88,-254.52 412.35,-253.41 413.95,-260.22"/>
</g>
<!-- Node8 -->
<g id="node8" class="node">
<title>Node8</title>
<g id="a_node8"><a xlink:title=" ">
<polygon fill="none" stroke="#bfbfbf" points="519,-112.5 519,-131.5 627,-131.5 627,-112.5 519,-112.5"/>
<text text-anchor="middle" x="573" y="-119.5" font-family="Helvetica,sans-Serif" font-size="10.00">boost/beast/core.hpp</text>
</a>
</g>
</g>
<!-- Node7&#45;&gt;Node8 -->
<g id="edge7" class="edge">
<title>Node7&#45;&gt;Node8</title>
<path fill="none" stroke="midnightblue" d="M329.22,-173.9C335.95,-171.84 343.21,-169.73 350,-168 404.98,-154.01 468.46,-141.55 513.6,-133.31"/>
<polygon fill="midnightblue" stroke="midnightblue" points="514.3,-136.74 523.52,-131.52 513.06,-129.85 514.3,-136.74"/>
</g>
<!-- Node9 -->
<g id="node9" class="node">
<title>Node9</title>
<g id="a_node9"><a xlink:href="../../d7/d17/_logger_file_8hpp.html" target="_top" xlink:title=" ">
<polygon fill="none" stroke="black" points="246.5,-112.5 246.5,-131.5 359.5,-131.5 359.5,-112.5 246.5,-112.5"/>
<text text-anchor="middle" x="303" y="-119.5" font-family="Helvetica,sans-Serif" font-size="10.00">Logger/LoggerFile.hpp</text>
</a>
</g>
</g>
<!-- Node7&#45;&gt;Node9 -->
<g id="edge8" class="edge">
<title>Node7&#45;&gt;Node9</title>
<path fill="none" stroke="midnightblue" d="M303,-173.98C303,-165.58 303,-152.48 303,-141.66"/>
<polygon fill="midnightblue" stroke="midnightblue" points="306.5,-141.51 303,-131.51 299.5,-141.51 306.5,-141.51"/>
</g>
<!-- Node10 -->
<g id="node10" class="node">
<title>Node10</title>
<g id="a_node10"><a xlink:href="../../d3/de3/_logger_8hpp.html" target="_top" xlink:title=" ">
<polygon fill="none" stroke="black" points="211,-56.5 211,-75.5 275,-75.5 275,-56.5 211,-56.5"/>
<text text-anchor="middle" x="243" y="-63.5" font-family="Helvetica,sans-Serif" font-size="10.00">Logger.hpp</text>
</a>
</g>
</g>
<!-- Node9&#45;&gt;Node10 -->
<g id="edge9" class="edge">
<title>Node9&#45;&gt;Node10</title>
<path fill="none" stroke="midnightblue" d="M293.36,-112.32C284.49,-104.34 271.13,-92.31 260.39,-82.65"/>
<polygon fill="midnightblue" stroke="midnightblue" points="262.59,-79.92 252.82,-75.83 257.91,-85.13 262.59,-79.92"/>
</g>
<!-- Node11 -->
<g id="node11" class="node">
<title>Node11</title>
<g id="a_node11"><a xlink:title=" ">
<polygon fill="none" stroke="#bfbfbf" points="252.5,-0.5 252.5,-19.5 293.5,-19.5 293.5,-0.5 252.5,-0.5"/>
<text text-anchor="middle" x="273" y="-7.5" font-family="Helvetica,sans-Serif" font-size="10.00">string</text>
</a>
</g>
</g>
<!-- Node9&#45;&gt;Node11 -->
<g id="edge11" class="edge">
<title>Node9&#45;&gt;Node11</title>
<path fill="none" stroke="midnightblue" d="M300.65,-112.37C295.78,-94.54 284.54,-53.3 277.98,-29.27"/>
<polygon fill="midnightblue" stroke="midnightblue" points="281.35,-28.32 275.34,-19.59 274.6,-30.16 281.35,-28.32"/>
</g>
<!-- Node12 -->
<g id="node12" class="node">
<title>Node12</title>
<g id="a_node12"><a xlink:title=" ">
<polygon fill="none" stroke="#bfbfbf" points="331,-56.5 331,-75.5 381,-75.5 381,-56.5 331,-56.5"/>
<text text-anchor="middle" x="356" y="-63.5" font-family="Helvetica,sans-Serif" font-size="10.00">fstream</text>
</a>
</g>
</g>
<!-- Node9&#45;&gt;Node12 -->
<g id="edge12" class="edge">
<title>Node9&#45;&gt;Node12</title>
<path fill="none" stroke="midnightblue" d="M311.75,-112.08C319.47,-104.22 330.9,-92.57 340.22,-83.08"/>
<polygon fill="midnightblue" stroke="midnightblue" points="342.9,-85.34 347.41,-75.75 337.91,-80.44 342.9,-85.34"/>
</g>
<!-- Node10&#45;&gt;Node11 -->
<g id="edge10" class="edge">
<title>Node10&#45;&gt;Node11</title>
<path fill="none" stroke="midnightblue" d="M247.95,-56.08C252.1,-48.61 258.15,-37.72 263.27,-28.52"/>
<polygon fill="midnightblue" stroke="midnightblue" points="266.34,-30.19 268.14,-19.75 260.22,-26.79 266.34,-30.19"/>
</g>
<!-- Node13&#45;&gt;Node5 -->
<g id="edge17" class="edge">
<title>Node13&#45;&gt;Node5</title>
<path fill="none" stroke="midnightblue" d="M414.27,-238.93C350.68,-231.49 230.56,-216.57 129,-199 122.27,-197.84 115.2,-196.49 108.26,-195.1"/>
<polygon fill="midnightblue" stroke="midnightblue" points="108.73,-191.62 98.23,-193.04 107.32,-198.48 108.73,-191.62"/>
</g>
<!-- Node13&#45;&gt;Node6 -->
<g id="edge18" class="edge">
<title>Node13&#45;&gt;Node6</title>
<path fill="none" stroke="midnightblue" d="M420.64,-235.5C380,-226.48 313.96,-211.8 257,-199 251.65,-197.8 246.05,-196.54 240.48,-195.28"/>
<polygon fill="midnightblue" stroke="midnightblue" points="241.09,-191.83 230.56,-193.03 239.54,-198.65 241.09,-191.83"/>
</g>
<!-- Node13&#45;&gt;Node7 -->
<g id="edge22" class="edge">
<title>Node13&#45;&gt;Node7</title>
<path fill="none" stroke="midnightblue" d="M436.65,-235.48C410.01,-225.31 365.29,-208.26 334.99,-196.7"/>
<polygon fill="midnightblue" stroke="midnightblue" points="335.9,-193.3 325.31,-193.01 333.41,-199.84 335.9,-193.3"/>
</g>
<!-- Node13&#45;&gt;Node8 -->
<g id="edge14" class="edge">
<title>Node13&#45;&gt;Node8</title>
<path fill="none" stroke="midnightblue" d="M503.75,-242.04C565.3,-238.3 671.2,-227.76 695,-199 703.78,-188.38 702.88,-179.3 695,-168 681.62,-148.8 659.07,-137.77 636.97,-131.44"/>
<polygon fill="midnightblue" stroke="midnightblue" points="637.78,-128.04 627.22,-128.93 636.04,-134.82 637.78,-128.04"/>
</g>
<!-- Node14 -->
<g id="node14" class="node">
<title>Node14</title>
<g id="a_node14"><a xlink:title=" ">
<polygon fill="none" stroke="#bfbfbf" points="742,-174 742,-193 848,-193 848,-174 742,-174"/>
<text text-anchor="middle" x="795" y="-181" font-family="Helvetica,sans-Serif" font-size="10.00">boost/beast/http.hpp</text>
</a>
</g>
</g>
<!-- Node13&#45;&gt;Node14 -->
<g id="edge15" class="edge">
<title>Node13&#45;&gt;Node14</title>
<path fill="none" stroke="midnightblue" d="M503.86,-237.16C557.35,-228.85 649.41,-214.07 728,-199 734.21,-197.81 740.73,-196.49 747.17,-195.14"/>
<polygon fill="midnightblue" stroke="midnightblue" points="748.1,-198.52 757.15,-193.02 746.64,-191.67 748.1,-198.52"/>
</g>
<!-- Node15 -->
<g id="node15" class="node">
<title>Node15</title>
<g id="a_node15"><a xlink:title=" ">
<polygon fill="none" stroke="#bfbfbf" points="866.5,-174 866.5,-193 987.5,-193 987.5,-174 866.5,-174"/>
<text text-anchor="middle" x="927" y="-181" font-family="Helvetica,sans-Serif" font-size="10.00">boost/beast/version.hpp</text>
</a>
</g>
</g>
<!-- Node13&#45;&gt;Node15 -->
<g id="edge16" class="edge">
<title>Node13&#45;&gt;Node15</title>
<path fill="none" stroke="midnightblue" d="M503.65,-240.3C577.46,-233.87 729.45,-219.38 857,-199 864.16,-197.86 871.7,-196.48 879.07,-195.03"/>
<polygon fill="midnightblue" stroke="midnightblue" points="879.86,-198.45 888.97,-193.04 878.48,-191.58 879.86,-198.45"/>
</g>
<!-- Node16 -->
<g id="node16" class="node">
<title>Node16</title>
<g id="a_node16"><a xlink:title=" ">
<polygon fill="none" stroke="#bfbfbf" points="358.5,-174 358.5,-193 447.5,-193 447.5,-174 358.5,-174"/>
<text text-anchor="middle" x="403" y="-181" font-family="Helvetica,sans-Serif" font-size="10.00">boost/config.hpp</text>
</a>
</g>
</g>
<!-- Node13&#45;&gt;Node16 -->
<g id="edge19" class="edge">
<title>Node13&#45;&gt;Node16</title>
<path fill="none" stroke="midnightblue" d="M450.98,-235.48C442.41,-226.37 428.64,-211.74 418.04,-200.48"/>
<polygon fill="midnightblue" stroke="midnightblue" points="420.41,-197.89 411.01,-193.01 415.31,-202.69 420.41,-197.89"/>
</g>
<!-- Node17 -->
<g id="node17" class="node">
<title>Node17</title>
<g id="a_node17"><a xlink:title=" ">
<polygon fill="none" stroke="#bfbfbf" points="465.5,-168.5 465.5,-198.5 566.5,-198.5 566.5,-168.5 465.5,-168.5"/>
<text text-anchor="start" x="473.5" y="-186.5" font-family="Helvetica,sans-Serif" font-size="10.00">boost/property_tree</text>
<text text-anchor="middle" x="516" y="-175.5" font-family="Helvetica,sans-Serif" font-size="10.00">/ptree.hpp</text>
</a>
</g>
</g>
<!-- Node13&#45;&gt;Node17 -->
<g id="edge20" class="edge">
<title>Node13&#45;&gt;Node17</title>
<path fill="none" stroke="midnightblue" d="M467.17,-235.48C474.53,-227.79 485.66,-216.17 495.44,-205.96"/>
<polygon fill="midnightblue" stroke="midnightblue" points="498.18,-208.17 502.57,-198.52 493.12,-203.32 498.18,-208.17"/>
</g>
<!-- Node18 -->
<g id="node18" class="node">
<title>Node18</title>
<g id="a_node18"><a xlink:title=" ">
<polygon fill="none" stroke="#bfbfbf" points="584.5,-168.5 584.5,-198.5 685.5,-198.5 685.5,-168.5 584.5,-168.5"/>
<text text-anchor="start" x="592.5" y="-186.5" font-family="Helvetica,sans-Serif" font-size="10.00">boost/property_tree</text>
<text text-anchor="middle" x="635" y="-175.5" font-family="Helvetica,sans-Serif" font-size="10.00">/json_parser.hpp</text>
</a>
</g>
</g>
<!-- Node13&#45;&gt;Node18 -->
<g id="edge21" class="edge">
<title>Node13&#45;&gt;Node18</title>
<path fill="none" stroke="midnightblue" d="M484.22,-235.48C510.06,-226.74 550.97,-212.91 583.66,-201.86"/>
<polygon fill="midnightblue" stroke="midnightblue" points="585.17,-205.04 593.52,-198.52 582.93,-198.41 585.17,-205.04"/>
</g>
</g>
</svg>
