<?xml version="1.0" encoding="UTF-8" standalone="no"?>
<!DOCTYPE svg PUBLIC "-//W3C//DTD SVG 1.1//EN"
 "http://www.w3.org/Graphics/SVG/1.1/DTD/svg11.dtd">
<!-- Generated by graphviz version 2.44.1 (20200629.0846)
 -->
<!-- Title: BoostServer/src/HttpSession.hpp Pages: 1 -->
<svg width="438pt" height="196pt"
 viewBox="0.00 0.00 438.00 196.00" xmlns="http://www.w3.org/2000/svg" xmlns:xlink="http://www.w3.org/1999/xlink">
<g id="graph0" class="graph" transform="scale(1 1) rotate(0) translate(4 192)">
<title>BoostServer/src/HttpSession.hpp</title>
<!-- Node1 -->
<g id="node1" class="node">
<title>Node1</title>
<g id="a_node1"><a xlink:title=" ">
<polygon fill="#bfbfbf" stroke="black" points="177,-168.5 177,-187.5 340,-187.5 340,-168.5 177,-168.5"/>
<text text-anchor="middle" x="258.5" y="-175.5" font-family="Helvetica,sans-Serif" font-size="10.00">BoostServer/src/HttpSession.hpp</text>
</a>
</g>
</g>
<!-- Node2 -->
<g id="node2" class="node">
<title>Node2</title>
<g id="a_node2"><a xlink:href="../../dd/d4c/_http_listener_8hpp.html" target="_top" xlink:title=" ">
<polygon fill="none" stroke="black" points="88,-112.5 88,-131.5 249,-131.5 249,-112.5 88,-112.5"/>
<text text-anchor="middle" x="168.5" y="-119.5" font-family="Helvetica,sans-Serif" font-size="10.00">BoostServer/src/HttpListener.hpp</text>
</a>
</g>
</g>
<!-- Node1&#45;&gt;Node2 -->
<g id="edge1" class="edge">
<title>Node1&#45;&gt;Node2</title>
<path fill="none" stroke="midnightblue" d="M235.46,-163.18C218.9,-153.24 197.08,-140.15 182.92,-131.65"/>
<polygon fill="midnightblue" stroke="midnightblue" points="233.66,-166.18 244.04,-168.32 237.27,-160.18 233.66,-166.18"/>
</g>
<!-- Node7 -->
<g id="node7" class="node">
<title>Node7</title>
<g id="a_node7"><a xlink:href="../../dc/df0/_http_session_8cpp.html" target="_top" xlink:title=" ">
<polygon fill="none" stroke="black" points="267,-112.5 267,-131.5 430,-131.5 430,-112.5 267,-112.5"/>
<text text-anchor="middle" x="348.5" y="-119.5" font-family="Helvetica,sans-Serif" font-size="10.00">BoostServer/src/HttpSession.cpp</text>
</a>
</g>
</g>
<!-- Node1&#45;&gt;Node7 -->
<g id="edge6" class="edge">
<title>Node1&#45;&gt;Node7</title>
<path fill="none" stroke="midnightblue" d="M281.54,-163.18C298.1,-153.24 319.92,-140.15 334.08,-131.65"/>
<polygon fill="midnightblue" stroke="midnightblue" points="279.73,-160.18 272.96,-168.32 283.34,-166.18 279.73,-160.18"/>
</g>
<!-- Node3 -->
<g id="node3" class="node">
<title>Node3</title>
<g id="a_node3"><a xlink:href="../../df/df5/_http_listener_8cpp.html" target="_top" xlink:title=" ">
<polygon fill="none" stroke="black" points="0,-56.5 0,-75.5 161,-75.5 161,-56.5 0,-56.5"/>
<text text-anchor="middle" x="80.5" y="-63.5" font-family="Helvetica,sans-Serif" font-size="10.00">BoostServer/src/HttpListener.cpp</text>
</a>
</g>
</g>
<!-- Node2&#45;&gt;Node3 -->
<g id="edge2" class="edge">
<title>Node2&#45;&gt;Node3</title>
<path fill="none" stroke="midnightblue" d="M145.52,-106.9C129.39,-97 108.32,-84.07 94.6,-75.65"/>
<polygon fill="midnightblue" stroke="midnightblue" points="144.01,-110.08 154.36,-112.32 147.67,-104.11 144.01,-110.08"/>
</g>
<!-- Node4 -->
<g id="node4" class="node">
<title>Node4</title>
<g id="a_node4"><a xlink:href="../../dc/da1/_http_server_8hpp.html" target="_top" xlink:title=" ">
<polygon fill="none" stroke="black" points="179,-56.5 179,-75.5 334,-75.5 334,-56.5 179,-56.5"/>
<text text-anchor="middle" x="256.5" y="-63.5" font-family="Helvetica,sans-Serif" font-size="10.00">BoostServer/src/HttpServer.hpp</text>
</a>
</g>
</g>
<!-- Node2&#45;&gt;Node4 -->
<g id="edge3" class="edge">
<title>Node2&#45;&gt;Node4</title>
<path fill="none" stroke="midnightblue" d="M191.48,-106.9C207.61,-97 228.68,-84.07 242.4,-75.65"/>
<polygon fill="midnightblue" stroke="midnightblue" points="189.33,-104.11 182.64,-112.32 192.99,-110.08 189.33,-104.11"/>
</g>
<!-- Node5 -->
<g id="node5" class="node">
<title>Node5</title>
<g id="a_node5"><a xlink:href="../../dc/d40/_http_server_8cpp.html" target="_top" xlink:title=" ">
<polygon fill="none" stroke="black" points="98,-0.5 98,-19.5 253,-19.5 253,-0.5 98,-0.5"/>
<text text-anchor="middle" x="175.5" y="-7.5" font-family="Helvetica,sans-Serif" font-size="10.00">BoostServer/src/HttpServer.cpp</text>
</a>
</g>
</g>
<!-- Node4&#45;&gt;Node5 -->
<g id="edge4" class="edge">
<title>Node4&#45;&gt;Node5</title>
<path fill="none" stroke="midnightblue" d="M234.93,-50.62C220.14,-40.76 200.99,-27.99 188.48,-19.65"/>
<polygon fill="midnightblue" stroke="midnightblue" points="233.22,-53.69 243.49,-56.32 237.11,-47.86 233.22,-53.69"/>
</g>
<!-- Node6 -->
<g id="node6" class="node">
<title>Node6</title>
<g id="a_node6"><a xlink:href="../../df/d0a/main_8cpp.html" target="_top" xlink:title=" ">
<polygon fill="none" stroke="black" points="271.5,-0.5 271.5,-19.5 401.5,-19.5 401.5,-0.5 271.5,-0.5"/>
<text text-anchor="middle" x="336.5" y="-7.5" font-family="Helvetica,sans-Serif" font-size="10.00">BoostServer/src/main.cpp</text>
</a>
</g>
</g>
<!-- Node4&#45;&gt;Node6 -->
<g id="edge5" class="edge">
<title>Node4&#45;&gt;Node6</title>
<path fill="none" stroke="midnightblue" d="M277.8,-50.62C292.42,-40.76 311.33,-27.99 323.68,-19.65"/>
<polygon fill="midnightblue" stroke="midnightblue" points="275.68,-47.83 269.35,-56.32 279.6,-53.63 275.68,-47.83"/>
</g>
</g>
</svg>
