<?xml version="1.0" encoding="UTF-8" standalone="no"?>
<!DOCTYPE svg PUBLIC "-//W3C//DTD SVG 1.1//EN"
 "http://www.w3.org/Graphics/SVG/1.1/DTD/svg11.dtd">
<!-- Generated by graphviz version 2.44.1 (20200629.0846)
 -->
<!-- Title: Graphe hiérarchique des classes Pages: 1 -->
<svg width="172pt" height="66pt"
 viewBox="0.00 0.00 172.00 66.00" xmlns="http://www.w3.org/2000/svg" xmlns:xlink="http://www.w3.org/1999/xlink">
<g id="graph0" class="graph" transform="scale(1 1) rotate(0) translate(4 62)">
<title>Graphe hiérarchique des classes</title>
<!-- Node0 -->
<g id="node1" class="node">
<title>Node0</title>
<g id="a_node1"><a xlink:href="d3/d42/class_logger.html" target="_top" xlink:title=" ">
<polygon fill="none" stroke="black" points="0,-19.5 0,-38.5 46,-38.5 46,-19.5 0,-19.5"/>
<text text-anchor="middle" x="23" y="-26.5" font-family="Helvetica,sans-Serif" font-size="10.00">Logger</text>
</a>
</g>
</g>
<!-- Node1 -->
<g id="node2" class="node">
<title>Node1</title>
<g id="a_node2"><a xlink:href="dc/d5d/class_logger_console.html" target="_top" xlink:title=" ">
<polygon fill="none" stroke="black" points="82,-38.5 82,-57.5 164,-57.5 164,-38.5 82,-38.5"/>
<text text-anchor="middle" x="123" y="-45.5" font-family="Helvetica,sans-Serif" font-size="10.00">LoggerConsole</text>
</a>
</g>
</g>
<!-- Node0&#45;&gt;Node1 -->
<g id="edge1" class="edge">
<title>Node0&#45;&gt;Node1</title>
<path fill="none" stroke="midnightblue" d="M56.14,-35.23C64.32,-36.82 73.21,-38.54 81.74,-40.2"/>
<polygon fill="midnightblue" stroke="midnightblue" points="56.72,-31.78 46.24,-33.31 55.39,-38.65 56.72,-31.78"/>
</g>
<!-- Node2 -->
<g id="node3" class="node">
<title>Node2</title>
<g id="a_node3"><a xlink:href="de/dd8/class_logger_file.html" target="_top" xlink:title=" ">
<polygon fill="none" stroke="black" points="92,-0.5 92,-19.5 154,-19.5 154,-0.5 92,-0.5"/>
<text text-anchor="middle" x="123" y="-7.5" font-family="Helvetica,sans-Serif" font-size="10.00">LoggerFile</text>
</a>
</g>
</g>
<!-- Node0&#45;&gt;Node2 -->
<g id="edge2" class="edge">
<title>Node0&#45;&gt;Node2</title>
<path fill="none" stroke="midnightblue" d="M56.24,-22.75C67.65,-20.54 80.44,-18.06 91.68,-15.88"/>
<polygon fill="midnightblue" stroke="midnightblue" points="55.39,-19.35 46.24,-24.69 56.72,-26.22 55.39,-19.35"/>
</g>
</g>
</svg>
