<?xml version="1.0" encoding="UTF-8" standalone="no"?>
<!DOCTYPE svg PUBLIC "-//W3C//DTD SVG 1.1//EN"
 "http://www.w3.org/Graphics/SVG/1.1/DTD/svg11.dtd">
<!-- Generated by graphviz version 2.44.1 (20200629.0846)
 -->
<!-- Title: BoostServer/src/Logger/LoggerFile.hpp Pages: 1 -->
<svg width="687pt" height="341pt"
 viewBox="0.00 0.00 686.50 341.00" xmlns="http://www.w3.org/2000/svg" xmlns:xlink="http://www.w3.org/1999/xlink">
<g id="graph0" class="graph" transform="scale(1 1) rotate(0) translate(4 337)">
<title>BoostServer/src/Logger/LoggerFile.hpp</title>
<!-- Node1 -->
<g id="node1" class="node">
<title>Node1</title>
<g id="a_node1"><a xlink:title=" ">
<polygon fill="#bfbfbf" stroke="black" points="382,-302.5 382,-332.5 501,-332.5 501,-302.5 382,-302.5"/>
<text text-anchor="start" x="390" y="-320.5" font-family="Helvetica,sans-Serif" font-size="10.00">BoostServer/src/Logger</text>
<text text-anchor="middle" x="441.5" y="-309.5" font-family="Helvetica,sans-Serif" font-size="10.00">/LoggerFile.hpp</text>
</a>
</g>
</g>
<!-- Node2 -->
<g id="node2" class="node">
<title>Node2</title>
<g id="a_node2"><a xlink:href="../../d4/d90/_http_utils_8hpp.html" target="_top" xlink:title=" ">
<polygon fill="none" stroke="black" points="291.5,-241 291.5,-260 439.5,-260 439.5,-241 291.5,-241"/>
<text text-anchor="middle" x="365.5" y="-248" font-family="Helvetica,sans-Serif" font-size="10.00">BoostServer/src/HttpUtils.hpp</text>
</a>
</g>
</g>
<!-- Node1&#45;&gt;Node2 -->
<g id="edge1" class="edge">
<title>Node1&#45;&gt;Node2</title>
<path fill="none" stroke="midnightblue" d="M417.15,-295.67C403.11,-283.67 386.22,-269.22 375.67,-260.19"/>
<polygon fill="midnightblue" stroke="midnightblue" points="415.13,-298.56 425.01,-302.4 419.68,-293.24 415.13,-298.56"/>
</g>
<!-- Node12 -->
<g id="node12" class="node">
<title>Node12</title>
<g id="a_node12"><a xlink:href="../../d1/dc6/_logger_file_8cpp.html" target="_top" xlink:title=" ">
<polygon fill="none" stroke="black" points="458,-235.5 458,-265.5 577,-265.5 577,-235.5 458,-235.5"/>
<text text-anchor="start" x="466" y="-253.5" font-family="Helvetica,sans-Serif" font-size="10.00">BoostServer/src/Logger</text>
<text text-anchor="middle" x="517.5" y="-242.5" font-family="Helvetica,sans-Serif" font-size="10.00">/LoggerFile.cpp</text>
</a>
</g>
</g>
<!-- Node1&#45;&gt;Node12 -->
<g id="edge12" class="edge">
<title>Node1&#45;&gt;Node12</title>
<path fill="none" stroke="midnightblue" d="M465.61,-295.88C477.16,-286.01 490.69,-274.43 501.04,-265.58"/>
<polygon fill="midnightblue" stroke="midnightblue" points="463.32,-293.24 457.99,-302.4 467.87,-298.56 463.32,-293.24"/>
</g>
<!-- Node3 -->
<g id="node3" class="node">
<title>Node3</title>
<g id="a_node3"><a xlink:href="../../dd/d4c/_http_listener_8hpp.html" target="_top" xlink:title=" ">
<polygon fill="none" stroke="black" points="88,-112.5 88,-131.5 249,-131.5 249,-112.5 88,-112.5"/>
<text text-anchor="middle" x="168.5" y="-119.5" font-family="Helvetica,sans-Serif" font-size="10.00">BoostServer/src/HttpListener.hpp</text>
</a>
</g>
</g>
<!-- Node2&#45;&gt;Node3 -->
<g id="edge2" class="edge">
<title>Node2&#45;&gt;Node3</title>
<path fill="none" stroke="midnightblue" d="M281.32,-243.24C248.42,-236.67 212.82,-223.82 188.5,-199 170.26,-180.38 168.11,-147.24 168.19,-131.61"/>
<polygon fill="midnightblue" stroke="midnightblue" points="280.97,-246.73 291.43,-245.08 282.22,-239.84 280.97,-246.73"/>
</g>
<!-- Node8 -->
<g id="node8" class="node">
<title>Node8</title>
<g id="a_node8"><a xlink:href="../../d7/dc1/_http_session_8hpp.html" target="_top" xlink:title=" ">
<polygon fill="none" stroke="black" points="197,-174 197,-193 360,-193 360,-174 197,-174"/>
<text text-anchor="middle" x="278.5" y="-181" font-family="Helvetica,sans-Serif" font-size="10.00">BoostServer/src/HttpSession.hpp</text>
</a>
</g>
</g>
<!-- Node2&#45;&gt;Node8 -->
<g id="edge7" class="edge">
<title>Node2&#45;&gt;Node8</title>
<path fill="none" stroke="midnightblue" d="M345.51,-234.57C328.34,-221.74 304.18,-203.69 290.05,-193.13"/>
<polygon fill="midnightblue" stroke="midnightblue" points="343.66,-237.55 353.77,-240.73 347.85,-231.94 343.66,-237.55"/>
</g>
<!-- Node10 -->
<g id="node10" class="node">
<title>Node10</title>
<g id="a_node10"><a xlink:href="../../d5/d6a/_http_utils_8cpp.html" target="_top" xlink:title=" ">
<polygon fill="none" stroke="black" points="378.5,-174 378.5,-193 526.5,-193 526.5,-174 378.5,-174"/>
<text text-anchor="middle" x="452.5" y="-181" font-family="Helvetica,sans-Serif" font-size="10.00">BoostServer/src/HttpUtils.cpp</text>
</a>
</g>
</g>
<!-- Node2&#45;&gt;Node10 -->
<g id="edge10" class="edge">
<title>Node2&#45;&gt;Node10</title>
<path fill="none" stroke="midnightblue" d="M385.49,-234.57C402.66,-221.74 426.82,-203.69 440.95,-193.13"/>
<polygon fill="midnightblue" stroke="midnightblue" points="383.15,-231.94 377.23,-240.73 387.34,-237.55 383.15,-231.94"/>
</g>
<!-- Node11 -->
<g id="node11" class="node">
<title>Node11</title>
<g id="a_node11"><a xlink:href="../../da/d42/test_http_utils_8cpp.html" target="_top" xlink:title=" ">
<polygon fill="none" stroke="black" points="544.5,-168.5 544.5,-198.5 678.5,-198.5 678.5,-168.5 544.5,-168.5"/>
<text text-anchor="start" x="552.5" y="-186.5" font-family="Helvetica,sans-Serif" font-size="10.00">BoostServer/tests/testHttp</text>
<text text-anchor="middle" x="611.5" y="-175.5" font-family="Helvetica,sans-Serif" font-size="10.00">Utils.cpp</text>
</a>
</g>
</g>
<!-- Node2&#45;&gt;Node11 -->
<g id="edge11" class="edge">
<title>Node2&#45;&gt;Node11</title>
<path fill="none" stroke="midnightblue" d="M407.74,-238.34C449.4,-227.33 513.2,-210.47 558.29,-198.56"/>
<polygon fill="midnightblue" stroke="midnightblue" points="406.69,-235 397.91,-240.94 408.48,-241.76 406.69,-235"/>
</g>
<!-- Node4 -->
<g id="node4" class="node">
<title>Node4</title>
<g id="a_node4"><a xlink:href="../../df/df5/_http_listener_8cpp.html" target="_top" xlink:title=" ">
<polygon fill="none" stroke="black" points="0,-56.5 0,-75.5 161,-75.5 161,-56.5 0,-56.5"/>
<text text-anchor="middle" x="80.5" y="-63.5" font-family="Helvetica,sans-Serif" font-size="10.00">BoostServer/src/HttpListener.cpp</text>
</a>
</g>
</g>
<!-- Node3&#45;&gt;Node4 -->
<g id="edge3" class="edge">
<title>Node3&#45;&gt;Node4</title>
<path fill="none" stroke="midnightblue" d="M145.52,-106.9C129.39,-97 108.32,-84.07 94.6,-75.65"/>
<polygon fill="midnightblue" stroke="midnightblue" points="144.01,-110.08 154.36,-112.32 147.67,-104.11 144.01,-110.08"/>
</g>
<!-- Node5 -->
<g id="node5" class="node">
<title>Node5</title>
<g id="a_node5"><a xlink:href="../../dc/da1/_http_server_8hpp.html" target="_top" xlink:title=" ">
<polygon fill="none" stroke="black" points="179,-56.5 179,-75.5 334,-75.5 334,-56.5 179,-56.5"/>
<text text-anchor="middle" x="256.5" y="-63.5" font-family="Helvetica,sans-Serif" font-size="10.00">BoostServer/src/HttpServer.hpp</text>
</a>
</g>
</g>
<!-- Node3&#45;&gt;Node5 -->
<g id="edge4" class="edge">
<title>Node3&#45;&gt;Node5</title>
<path fill="none" stroke="midnightblue" d="M191.48,-106.9C207.61,-97 228.68,-84.07 242.4,-75.65"/>
<polygon fill="midnightblue" stroke="midnightblue" points="189.33,-104.11 182.64,-112.32 192.99,-110.08 189.33,-104.11"/>
</g>
<!-- Node6 -->
<g id="node6" class="node">
<title>Node6</title>
<g id="a_node6"><a xlink:href="../../dc/d40/_http_server_8cpp.html" target="_top" xlink:title=" ">
<polygon fill="none" stroke="black" points="98,-0.5 98,-19.5 253,-19.5 253,-0.5 98,-0.5"/>
<text text-anchor="middle" x="175.5" y="-7.5" font-family="Helvetica,sans-Serif" font-size="10.00">BoostServer/src/HttpServer.cpp</text>
</a>
</g>
</g>
<!-- Node5&#45;&gt;Node6 -->
<g id="edge5" class="edge">
<title>Node5&#45;&gt;Node6</title>
<path fill="none" stroke="midnightblue" d="M234.93,-50.62C220.14,-40.76 200.99,-27.99 188.48,-19.65"/>
<polygon fill="midnightblue" stroke="midnightblue" points="233.22,-53.69 243.49,-56.32 237.11,-47.86 233.22,-53.69"/>
</g>
<!-- Node7 -->
<g id="node7" class="node">
<title>Node7</title>
<g id="a_node7"><a xlink:href="../../df/d0a/main_8cpp.html" target="_top" xlink:title=" ">
<polygon fill="none" stroke="black" points="271.5,-0.5 271.5,-19.5 401.5,-19.5 401.5,-0.5 271.5,-0.5"/>
<text text-anchor="middle" x="336.5" y="-7.5" font-family="Helvetica,sans-Serif" font-size="10.00">BoostServer/src/main.cpp</text>
</a>
</g>
</g>
<!-- Node5&#45;&gt;Node7 -->
<g id="edge6" class="edge">
<title>Node5&#45;&gt;Node7</title>
<path fill="none" stroke="midnightblue" d="M277.8,-50.62C292.42,-40.76 311.33,-27.99 323.68,-19.65"/>
<polygon fill="midnightblue" stroke="midnightblue" points="275.68,-47.83 269.35,-56.32 279.6,-53.63 275.68,-47.83"/>
</g>
<!-- Node8&#45;&gt;Node3 -->
<g id="edge8" class="edge">
<title>Node8&#45;&gt;Node3</title>
<path fill="none" stroke="midnightblue" d="M253.93,-169.21C232.63,-157.69 202.43,-141.36 184.23,-131.51"/>
<polygon fill="midnightblue" stroke="midnightblue" points="252.28,-172.3 262.74,-173.98 255.61,-166.14 252.28,-172.3"/>
</g>
<!-- Node9 -->
<g id="node9" class="node">
<title>Node9</title>
<g id="a_node9"><a xlink:href="../../dc/df0/_http_session_8cpp.html" target="_top" xlink:title=" ">
<polygon fill="none" stroke="black" points="267,-112.5 267,-131.5 430,-131.5 430,-112.5 267,-112.5"/>
<text text-anchor="middle" x="348.5" y="-119.5" font-family="Helvetica,sans-Serif" font-size="10.00">BoostServer/src/HttpSession.cpp</text>
</a>
</g>
</g>
<!-- Node8&#45;&gt;Node9 -->
<g id="edge9" class="edge">
<title>Node8&#45;&gt;Node9</title>
<path fill="none" stroke="midnightblue" d="M296.18,-167.47C309.57,-156.09 327.48,-140.87 338.49,-131.51"/>
<polygon fill="midnightblue" stroke="midnightblue" points="293.88,-164.83 288.53,-173.98 298.42,-170.17 293.88,-164.83"/>
</g>
</g>
</svg>
